<svg xmlns="http://www.w3.org/2000/svg" xmlns:v="https://vecta.io/nano" width="663" height="603" fill="none"><style><![CDATA[.B{fill:#3c3838}.C{fill:#616161}.D{fill:#cfbaba}.E{fill:#263238}.F{fill:#b1b1b1}.G{fill:#455a64}.H{fill:#ffbe9d}.I{opacity:.6}.J{fill:#eb996e}.K{fill:#1c67ea}]]></style><g filter="url(#A)"><rect x="100" y="100" width="462.166" height="403" rx="201.5" fill="url(#B)" fill-opacity=".9"/></g><path d="M391.373 136.29l2.846 2.314c.122.101.266.171.422.203a.98.98 0 0 0 .469-.019l3.523-1.036a.97.97 0 0 1 .545-.016c.179.048.341.145.467.282s.209.306.241.489.009.371-.062.542l-1.326 3.427a.96.96 0 0 0-.06.463c.019.157.076.307.166.437l2.072 3.03a.98.98 0 0 1 .18.511c.009.184-.033.368-.124.528s-.225.292-.388.379a.97.97 0 0 1-.53.111l-3.659-.193a.96.96 0 0 0-.464.084.97.97 0 0 0-.369.293l-2.236 2.904a.97.97 0 0 1-.431.331c-.173.067-.36.083-.542.046a.97.97 0 0 1-.482-.253.96.96 0 0 1-.268-.472l-.968-3.543c-.04-.154-.119-.295-.226-.412a.98.98 0 0 0-.393-.256l-3.456-1.23c-.175-.058-.33-.164-.446-.307s-.189-.316-.211-.499.01-.368.091-.534a.97.97 0 0 1 .363-.402l3.078-1.994a.96.96 0 0 0 .321-.341c.078-.139.12-.294.124-.453l.107-3.669a.96.96 0 0 1 .142-.543c.101-.163.247-.293.421-.373s.368-.106.558-.075a.97.97 0 0 1 .505.246zm-59.306 59.773l1.501 1.22a.51.51 0 0 0 .224.106c.084.017.169.014.25-.01l1.849-.542c.092-.028.191-.03.284-.005a.51.51 0 0 1 .371.4c.019.095.009.193-.026.283l-.697 1.8c-.03.079-.039.162-.03.245s.041.162.088.23l1.094 1.597c.054.079.085.172.09.269a.5.5 0 0 1-.066.276.52.52 0 0 1-.202.198c-.085.046-.181.067-.277.06l-1.936-.096c-.083-.007-.166.006-.243.04a.49.49 0 0 0-.192.153l-1.181 1.53c-.06.075-.139.132-.229.165a.52.52 0 0 1-.279.023c-.094-.018-.181-.061-.252-.125a.51.51 0 0 1-.15-.238l-.455-1.868a.55.55 0 0 0-.122-.219.54.54 0 0 0-.207-.139l-1.82-.649c-.102-.027-.193-.084-.261-.164a.52.52 0 0 1-.065-.586.53.53 0 0 1 .219-.218l1.627-1.045a.54.54 0 0 0 .161-.182c.041-.072.065-.152.071-.234l.058-1.936a.5.5 0 0 1 .103-.236.51.51 0 0 1 .204-.157c.08-.034.168-.047.255-.037a.52.52 0 0 1 .241.091zm17.072-73.606l1.501 1.22c.065.053.143.09.225.107s.169.013.249-.01l1.849-.552c.093-.028.191-.03.284-.005a.5.5 0 0 1 .243.146c.066.071.111.159.129.254s.009.193-.027.283l-.697 1.81c-.029.078-.04.161-.029.244a.51.51 0 0 0 .087.23l1.084 1.597a.52.52 0 0 1 .09.266c.005.096-.017.19-.064.274a.51.51 0 0 1-.198.199.52.52 0 0 1-.273.065l-1.936-.107a.52.52 0 0 0-.436.204l-1.181 1.529c-.059.075-.137.133-.226.166s-.187.04-.281.021a.51.51 0 0 1-.249-.129.52.52 0 0 1-.144-.242l-.503-1.868c-.02-.08-.06-.153-.116-.214a.51.51 0 0 0-.204-.135l-1.819-.648a.52.52 0 0 1-.234-.164c-.06-.075-.098-.166-.109-.262a.51.51 0 0 1 .046-.281.53.53 0 0 1 .19-.213l1.665-1.045a.54.54 0 0 0 .242-.426l.048-1.936c.012-.087.045-.169.096-.24s.119-.128.199-.165a.51.51 0 0 1 .253-.05c.087.005.172.031.246.077z" class="B"/><path d="M530.456 532.851c0 .136-86.656.252-193.523.252s-193.541-.077-193.541-.252 86.639-.251 193.541-.251l193.523.251z" class="E"/><path d="M466.912 316.326c-.736-1.21 4.927-5.982 14.055-13.407l7.444-6.088c3.145-2.744 6.715-4.957 10.571-6.554a26.02 26.02 0 0 1 14.791-.968 24.7 24.7 0 0 1 7.492 3.001c2.565 1.528 4.752 3.616 6.399 6.108a12.91 12.91 0 0 1 1.248 2.362c.48 1.165.711 2.418.678 3.678a7.75 7.75 0 0 1-1.646 4.502c-.597.748-1.337 1.369-2.178 1.829-.907.497-1.918.772-2.952.804-1.487.045-2.955-.338-4.23-1.104-.813-.474-1.259-.803-1.501-.968s-.155-.097-.087-.068a1.16 1.16 0 0 0 .252.068h0c-.813.157-1.616.367-2.401.629-.619.184-1.374.329-2.052.455-.67.108-1.345.179-2.023.213a35.3 35.3 0 0 1-6.873-.435 50.56 50.56 0 0 0-5.15-.572 12.23 12.23 0 0 0-3.978.455c-2.744.93-5.365 2.191-7.802 3.756a45.08 45.08 0 0 1-7.599 3.814 18.42 18.42 0 0 1-6.708 1.23c-1.48.014-2.94-.338-4.25-1.027-.881-.513-1.21-.968-1.103-1.326.242-.726 2.1-.551 4.84-1.539 1.682-.607 3.285-1.416 4.772-2.41 2.085-1.422 4.089-2.96 6.002-4.608a36.33 36.33 0 0 1 9.05-5.808 20.14 20.14 0 0 1 6.612-1.442 50.28 50.28 0 0 1 6.282.193c1.715.18 3.441.203 5.16.068.377 0 .706-.097 1.055-.155s.6-.145.968-.271a23.47 23.47 0 0 1 3.717-1.035c1.064-.177 2.15-.177 3.214 0 .62.113 1.226.292 1.81.532a9.41 9.41 0 0 1 1.345.678l1.288.784v.096l-.242.513a9.62 9.62 0 0 0-.513 1.239 4.05 4.05 0 0 0-.194.746c-.012.09-.012.181 0 .271-.068-.232.078.3.058.252s0 0 0-.088a1.25 1.25 0 0 0-.329-.377c-.101-.086-.216-.155-.339-.203h.174-.629c-.283.002-.566.034-.842.096a6.47 6.47 0 0 0-.726.194l-.223.068a3.54 3.54 0 0 0-.358-.62c-1.461-2.323-4.549-4.181-7.744-4.985-3.112-.803-6.383-.75-9.467.155a34.84 34.84 0 0 0-8.712 4.53c-2.904 1.936-5.73 3.688-8.315 5.198-10.377 6.079-17.414 8.712-18.111 7.541z" class="D"/><path d="M516.387 500.334l-1.403 21.218s21.112 6.999 21.238 10.949l-41.257.3.833-33.145 20.589.678z" class="C"/><g class="F"><path d="M502.295 519.373a1.69 1.69 0 0 0-.995.727c-.227.359-.312.791-.234 1.209.093.405.338.758.683.986a1.62 1.62 0 0 0 1.175.243c.424-.116.79-.384 1.028-.755a1.78 1.78 0 0 0 .26-1.248 1.68 1.68 0 0 0-2.072-1.065m-7.175 13.329l.088-3.34 39.32.678a3.25 3.25 0 0 1 1.214.954 3.26 3.26 0 0 1 .635 1.408l-41.257.3z" class="I"/></g><g class="B"><path d="M515.661 521.407c0 .203-1.026.261-2.032.881s-1.569 1.442-1.753 1.365.155-1.239 1.394-1.936 2.44-.542 2.391-.31zm4.27 1.868c0 .203-.842.513-1.558 1.346s-.968 1.723-1.133 1.713-.29-1.162.61-2.178 2.081-1.065 2.081-.881zm2.297 5.257c-.184 0-.435-.968.116-2.072s1.51-1.491 1.588-1.326-.523.745-.968 1.646-.532 1.732-.736 1.752zm-6.785-12.044c-.087.184-.968-.126-2.14-.077s-2.042.368-2.139.193.774-.871 2.12-.9 2.236.629 2.159.784zm.203-4.286a3.89 3.89 0 0 1-2.062-.068 9.44 9.44 0 0 1-2.138-.736 8.93 8.93 0 0 1-1.163-.658c-.23-.133-.436-.303-.61-.503a.89.89 0 0 1-.067-1.075 1.11 1.11 0 0 1 .9-.435 2.82 2.82 0 0 1 .774.125 7.04 7.04 0 0 1 1.268.484c.688.333 1.32.775 1.868 1.307.968.91 1.23 1.675 1.162 1.714s-.542-.581-1.491-1.346c-.556-.437-1.164-.804-1.81-1.094-.379-.161-.771-.294-1.171-.397-.436-.125-.813-.145-.968 0s-.048.107 0 .233a2.38 2.38 0 0 0 .445.368 12.18 12.18 0 0 0 1.076.658 11.75 11.75 0 0 0 1.936.823 14.64 14.64 0 0 1 2.051.6z"/><path d="M515.371 512.484a3.34 3.34 0 0 1-.484-2.004 6.72 6.72 0 0 1 .358-2.255 6.29 6.29 0 0 1 .562-1.239c.122-.265.309-.492.546-.662a1.68 1.68 0 0 1 .799-.306.95.95 0 0 1 .842.6c.106.243.171.5.194.764a4.66 4.66 0 0 1 0 1.385c-.146.771-.478 1.495-.968 2.11-.842 1.045-1.684 1.258-1.704 1.191s.649-.475 1.297-1.481c.378-.586.622-1.247.717-1.936.053-.399.053-.803 0-1.201-.058-.435-.204-.794-.378-.755s-.561.31-.736.658a7.06 7.06 0 0 0-.551 1.104c-.247.655-.401 1.344-.455 2.042-.116 1.23.106 1.965-.039 1.985z"/></g><path d="M475.575 499.89l-2.904 21.063s20.58 8.461 20.425 12.41l-41.169-2.575 3.127-32.999 20.521 2.101z" class="C"/><g class="F"><path d="M460.193 517.904c-.408.079-.772.308-1.023.64a1.68 1.68 0 0 0-.332 1.16c.065.41.284.78.615 1.032a1.62 1.62 0 0 0 1.156.324 1.78 1.78 0 0 0 1.087-.692c.264-.359.384-.803.336-1.244-.114-.421-.386-.782-.759-1.007a1.69 1.69 0 0 0-1.245-.203m-8.071 12.873l.31-3.33 39.688 3.872c.408.244.746.586.987.995a2.83 2.83 0 0 1 .388 1.348l-41.373-2.885z" class="I"/></g><g class="B"><path d="M473.393 520.816c0 .194-1.036.184-2.091.736s-1.656 1.336-1.83 1.239.233-1.229 1.52-1.868 2.459-.291 2.401-.107zm4.121 2.206c0 .204-.871.455-1.636 1.23s-1.055 1.665-1.248 1.636-.213-1.181.755-2.13 2.149-.929 2.129-.736zm1.938 5.403c-.193 0-.368-.968.252-2.052s1.607-1.394 1.675-1.22-.572.707-1.065 1.578-.668 1.694-.862 1.694zm-5.937-12.488c-.107.174-.968-.194-2.14-.232s-2.052.232-2.139.058.833-.813 2.168-.755 2.227.784 2.111.929zm.507-4.209a3.87 3.87 0 0 1-2.062-.213 9.49 9.49 0 0 1-3.194-1.626 2.27 2.27 0 0 1-.581-.542.89.89 0 0 1 0-1.075 1.1 1.1 0 0 1 .416-.293 1.11 1.11 0 0 1 .503-.075 2.64 2.64 0 0 1 .765.184 7.59 7.59 0 0 1 1.239.562 7.18 7.18 0 0 1 1.762 1.432c.871.968 1.123 1.762 1.045 1.791s-.493-.61-1.394-1.442c-.522-.476-1.105-.883-1.732-1.21a7.71 7.71 0 0 0-1.143-.484c-.425-.155-.793-.203-.919 0s-.058.097 0 .242c.126.149.269.283.426.397a10.97 10.97 0 0 0 1.016.726c.615.382 1.262.705 1.936.968.654.175 1.294.396 1.917.658z"/><path d="M473.732 511.94c-.337-.624-.459-1.342-.348-2.043a6.79 6.79 0 0 1 .503-2.216 8.09 8.09 0 0 1 .649-1.201c.14-.258.345-.478.594-.635s.535-.248.829-.265c.181.024.351.099.492.215a.97.97 0 0 1 .302.443 2.38 2.38 0 0 1 .135.775c.025.465-.02.933-.135 1.384-.19.756-.562 1.454-1.085 2.033-.91.968-1.771 1.142-1.781 1.074s.678-.426 1.394-1.384a4.68 4.68 0 0 0 .842-1.868 4.33 4.33 0 0 0 .087-1.191c0-.445-.154-.813-.319-.784a1.52 1.52 0 0 0-.784.6 6.43 6.43 0 0 0-.62 1.065 7.11 7.11 0 0 0-.609 2.013c-.175 1.191-.039 1.965-.146 1.985zm46.73-190.126s11.567 20.125 11.567 48.091c0 12.39-11.616 136.43-11.616 136.43l-28.662.067 1.558-63.404 3.659-121 23.494-.184z"/><path d="M470.988 321.245a.65.65 0 0 1-.097.126c-12.768 16.649-17.511 37.113-16.64 56.976l3.301 43.367-5.595 80.111 31.509 4.579 7.85-74.604 13.117-82.803v-27.181s-29.282-6.157-33.445-.571z"/></g><g class="C"><path d="M508.411 236.379c.862.155 9.08 3.611 12.816 5.189 1.184.497 2.15 1.404 2.72 2.555l18.392 37.026-14.239 9.874s-3.988 29.379-7.637 30.84c-1.365.542-45.303 0-45.303 0s-5.362 1.936-7.289 0c-1.481-1.471-.9-4.327-.9-4.327v-60.355l-2.672-16.62s25.556-7.454 44.112-4.182z"/><path d="M474.03 253.369l.793 30.008-25.584 2.449c0-.165-2.768-38.914 15.043-45.322l9.748 12.865z"/></g><g class="B"><path d="M527.041 285.825l-.59-3.93-1.443-10.106-1.432-10.105-.417-3.069c-.074-.373-.104-.753-.087-1.133.143.352.243.719.3 1.094a77.06 77.06 0 0 1 .581 3.049c.465 2.575 1.026 6.138 1.588 10.087l1.287 10.135c.145 1.307.242 2.352.291 3.088v.842.136s0 .087-.088.048v-.048c0-.059 0-.078.01-.088zm-77.799.009a12.02 12.02 0 0 1 1.82-.281l4.995-.561 16.504-1.656 2.236-.213-.242.272-.31-15.063v-4.491c-.023-.549-.006-1.1.049-1.646a9.25 9.25 0 0 1 .145 1.636l.203 4.492.475 15.062v.242h-.252l-2.236.213-16.514 1.5-5.005.397c-.619.08-1.244.112-1.868.097z"/><path d="M514.32 282.155l3.059-7.744c.153-.388.42-.719.765-.95a2.06 2.06 0 0 1 1.171-.348h14.52c.232.002.46.059.666.165a1.46 1.46 0 0 1 .517.451c.135.189.222.408.255.637a1.44 1.44 0 0 1-.064.683l-9.331 25.314a.78.78 0 0 1-.28.363c-.128.09-.28.138-.437.14h-17.23c-.124-.001-.246-.032-.356-.09a.75.75 0 0 1-.272-.246c-.07-.103-.114-.222-.127-.345s.003-.248.048-.364l7.096-17.666z"/></g><g class="D"><path d="M532.942 305.765l1.384-16.94-1.384-7.425-2.284 6.176v2.478c-.833-.222-8.645-6.843-10.745-5.411s-7.464 9.245-7.464 9.245 9.448 9.215 10.958 9.912l-2.255 9.302c-.533 2.527-1.065 9.68 2.255 10.832s12.197-6.776 10.948-11.8c-.881-3.32-1.413-6.369-1.413-6.369z"/><path d="M471.806 283.957l.833 9.913 23.841-8.712 10.648-4.908 4.647 1.162s14.597.968 14.733 1.887.794 1.723 0 1.859-12.342.668-12.342.668 12.448.793 12.729 1.723-.126 2.391-.784 2.391h-13.552s12.739.793 12.874 1.326 1.065 1.462-.135 1.858-12.875.794-12.875.794l10.997 1.946s.397 1.723-.533 1.723-24.945 1.587-24.945 1.587-28.14 17.986-33.454 19.293-9.951-4.84-10.648-9.187c-.968-6.553-1.936-23.677-1.936-23.677l19.902-1.646z"/></g><g class="B"><path d="M497.935 299.211c.16-.031.322-.051.484-.058l1.433-.117 5.508-.406 8.712-.6 5.421-.368 2.962-.203c.467.033.932-.087 1.326-.339.232-.242-.126-.765-.474-1.075l.096.049-11.025-1.936c-.029-.004-.057-.015-.082-.031a.22.22 0 0 1-.065-.06.23.23 0 0 1-.035-.082c-.007-.029-.007-.059-.002-.089.01-.05.035-.095.074-.129a.23.23 0 0 1 .139-.055l6.534-.29 3.398-.203 1.732-.145c.562-.078 1.21-.078 1.52-.388s.145-.968-.203-1.152a5.75 5.75 0 0 0-.794-.135l-.9-.107-3.64-.377-7.521-.697c-.069-.01-.132-.045-.177-.098a.28.28 0 0 1-.065-.192c.005-.066.035-.127.083-.173s.112-.069.178-.069h13.475c.174 0 .387-.223.522-.494a1.17 1.17 0 0 0-.271-1.559 7.43 7.43 0 0 0-1.432-.309l-1.549-.223-3.088-.368-6.089-.629c-.062-.012-.117-.045-.158-.093s-.061-.109-.061-.173.022-.124.061-.173.096-.081.158-.093l7.86-.378 3.814-.213c.272-.001.543-.041.804-.116.086-.068.151-.158.189-.26s.046-.213.024-.321c-.038-.252-.161-.485-.349-.658-.218-.153-.47-.253-.735-.29-2.391-.494-4.84-.726-7.154-.968l-6.844-.678-4.646-1.181h.145l-10.648 4.84-17.482 6.292-4.763 1.694-1.239.426-.425.126a1.79 1.79 0 0 1 .406-.184l1.229-.475 4.724-1.781 17.424-6.466 10.6-4.937c.047-.017.099-.017.145 0l4.656 1.162 6.863.658 7.212.968a2.12 2.12 0 0 1 .968.407c.283.25.465.594.513.968.036.203.013.412-.064.604a1.1 1.1 0 0 1-.372.48 2.87 2.87 0 0 1-1.045.193l-3.824.223-7.86.387v-.532l6.099.629 3.097.368 1.559.223a6.15 6.15 0 0 1 1.626.387c.189.112.349.265.469.448s.199.39.228.607c.033.408-.041.819-.213 1.191-.091.183-.208.353-.349.503-.084.086-.183.159-.29.213a.67.67 0 0 1-.368.077h-13.571v-.532l7.531.716 3.649.387.91.107c.329.029.653.095.968.194a1.33 1.33 0 0 1 .402.385c.105.155.176.331.208.515.045.185.042.377-.009.56s-.148.351-.281.485a1.68 1.68 0 0 1-.968.416l-.891.107-1.742.145-3.417.194-6.534.261v-.445l11.015 2.013h.087a2.79 2.79 0 0 1 .543.668c.098.142.151.312.151.484s-.053.342-.151.484c-.456.34-1.02.504-1.588.465l-2.962.184-5.431.319-8.712.513-5.507.3-1.443.058-.426.02z"/><path d="M465.07 305.127a5.65 5.65 0 0 1 .174-2.082 13.43 13.43 0 0 1 1.936-4.694c.956-1.411 2.184-2.619 3.611-3.553.559-.436 1.196-.765 1.878-.968.125.165-2.904 1.559-5.044 4.782a15.52 15.52 0 0 0-1.936 4.482c-.149.694-.356 1.374-.619 2.033z"/></g><path d="M526.35 279.533c.119.227.167.483.137.738s-.135.493-.302.686-.392.33-.638.395-.51.052-.751-.036a1.26 1.26 0 0 1-.598-.452 1.27 1.27 0 0 1-.033-1.432c.141-.214.342-.382.578-.479a1.19 1.19 0 0 1 .458-.116c.159-.007.318.016.467.07a1.19 1.19 0 0 1 .403.245c.117.107.212.237.279.381z" fill="#6f6f6f"/><path d="M479.057 194.842l7.861-16.049c-2.44-1.549-3.03-5.14-1.714-7.744.732-1.25 1.743-2.314 2.954-3.11a9.4 9.4 0 0 1 4.025-1.478c2.073-.317 4.191-.138 6.181.522a13.28 13.28 0 0 1 5.271 3.272c1.568 1.617 2.846 3.737 4.975 4.472 1.878.659 3.95.068 5.915.32 1.313.234 2.558.761 3.641 1.542s1.975 1.795 2.612 2.968a19.27 19.27 0 0 1 2.227 7.609c.29 2.42.474 5.082 2.158 6.853s4.23 2.091 6.273 3.321a8.6 8.6 0 0 1 2.555 11.732c-.813 1.171-1.936 2.255-2.061 3.678s.755 2.459 1.151 3.708c.203.802.232 1.638.085 2.454a5.82 5.82 0 0 1-.936 2.269c-.471.68-1.081 1.253-1.79 1.679a5.82 5.82 0 0 1-2.324.79c-1.694.097-3.505-.562-5.024.193s-2.062 2.575-3.03 3.95a7.24 7.24 0 0 1-4.014 2.71c-1.609.417-3.313.267-4.824-.426-1.239-.609-2.42-1.616-3.804-1.519s-2.469 1.268-3.824 1.529c-1.781.349-3.465-.968-4.52-2.439s-1.801-3.195-3.156-4.405c-1.771-1.578-4.259-1.936-6.495-2.739a18.4 18.4 0 0 1-6.649-4.053c-1.902-1.81-3.393-4.007-4.376-6.441s-1.432-5.051-1.318-7.675a18.4 18.4 0 0 1 1.975-7.532v.039z" class="B"/><path d="M480.532 236.584l-2.585-47.549c-.05-1.009.282-2 .929-2.778a4.03 4.03 0 0 1 2.566-1.413l21.247-6.021c6.844-.968 11.616 7.396 12.265 14.259.706 7.637 1.258 16.978.513 22.709-1.501 11.519-10.251 13.281-10.251 13.281l.29 14.52-.765 14.355-24.209-21.363z" class="D"/><path d="M511.141 202.839c.013.382-.122.755-.38 1.038s-.612.456-.995.481c-.187.022-.375.005-.555-.048s-.349-.141-.494-.26a1.43 1.43 0 0 1-.352-.433c-.089-.167-.142-.35-.157-.536a1.48 1.48 0 0 1 .378-1.043c.257-.284.614-.46.996-.487.188-.02.377-.003.558.052a1.42 1.42 0 0 1 .493.264 1.41 1.41 0 0 1 .352.434c.087.167.14.35.156.538zm1.925-4.832c-.174.194-1.316-.6-2.904-.552s-2.72.881-2.904.688.097-.436.591-.814c.669-.499 1.479-.773 2.313-.784a3.88 3.88 0 0 1 2.314.668c.503.358.677.707.59.794zm-16.18 5.239a1.47 1.47 0 0 1-.382 1.041 1.48 1.48 0 0 1-1.002.479c-.186.019-.374.002-.553-.052s-.346-.143-.491-.261a1.41 1.41 0 0 1-.35-.432 1.4 1.4 0 0 1-.155-.533c-.016-.384.119-.759.376-1.046s.615-.459.999-.484a1.41 1.41 0 0 1 .555.055c.18.055.348.144.492.264a1.41 1.41 0 0 1 .352.434 1.39 1.39 0 0 1 .159.535zm.64-4.503c-.184.203-1.317-.591-2.904-.542s-2.72.871-2.904.677.087-.425.581-.813a4.06 4.06 0 0 1 2.313-.784c.824-.026 1.634.212 2.314.678.503.358.687.697.6.784zm6.065 11.577a10.52 10.52 0 0 1 2.566-.532c.396-.058.784-.146.842-.426a2.05 2.05 0 0 0-.31-1.191l-1.278-3.039-2.904-7.977c.184-.067 1.762 3.388 3.553 7.744l1.229 3.069a2.32 2.32 0 0 1 .252 1.578.98.98 0 0 1-.25.384.97.97 0 0 1-.399.226c-.22.066-.448.106-.677.116-.87.127-1.75.144-2.624.048z" class="B"/><path d="M505.219 229.071a29.22 29.22 0 0 1-15.488-3.659s3.96 7.744 15.401 6.37l.087-2.711zm-1.754-14.974a3.88 3.88 0 0 0-1.425-1.214c-.568-.282-1.195-.42-1.828-.403a2.56 2.56 0 0 0-1.171.345c-.357.207-.659.497-.881.846-.219.397-.324.846-.303 1.299a2.46 2.46 0 0 0 .419 1.266c.297.385.704.673 1.167.825a2.43 2.43 0 0 0 1.427.027c.872-.315 1.655-.832 2.285-1.51.207-.162.373-.371.484-.61.058-.13.08-.272.065-.414a.8.8 0 0 0-.152-.39" class="C"/><g class="B"><path d="M498.039 192.21c-.145.436-1.733.271-3.582.552s-3.339.823-3.601.445c-.116-.184.136-.59.726-1.026.795-.528 1.704-.86 2.653-.968a6.16 6.16 0 0 1 2.817.252c.697.213 1.045.542.987.745zm14.322.368c-.271.368-1.374 0-2.681 0s-2.42.32-2.681-.058c-.126-.174.048-.542.522-.891.633-.44 1.389-.67 2.159-.658.772-.005 1.526.229 2.159.668.474.397.639.755.522.939zm10.331-1.907c-.474-1.751-1.542-3.284-3.02-4.336-.876-.453-1.729-.951-2.556-1.491-1.655-1.336-2.042-3.659-3.068-5.527-.671-1.204-1.621-2.23-2.77-2.993a8.64 8.64 0 0 0-3.832-1.392c-2.265-.232-4.608.455-6.824-.107-1.636-.416-3.069-1.471-4.734-1.79-3.223-.61-6.234 1.703-8.576 4.017 0 2.313 1.839 3.872 3.61 5.343.896.738 1.939 1.272 3.061 1.568a8.01 8.01 0 0 0 3.434.145c1.762-.329 3.698-1.219 5.228-.28s1.674 3.417 3.097 4.656c2.043 1.762 5.276.106 7.86.871 2.004.59 3.253 2.507 4.579 4.104s3.311 3.137 5.305 2.546a23.03 23.03 0 0 0-.794-5.334z"/><path d="M498.436 180.893c-1.452-.406-4.414-1.345-5.189-2.604-.788-1.348-1.918-2.465-3.276-3.237a8.86 8.86 0 0 0-4.458-1.157 7.32 7.32 0 0 0-4.259 1.807c-1.187 1.048-2.002 2.451-2.323 4a10.54 10.54 0 0 0-9.032 5.808c-.214.439-.405.888-.571 1.346a8.02 8.02 0 0 0-1.007 3.301 8 8 0 0 0 .475 3.417c.503 1.307 1.355 2.759.677 3.988s-2.41 1.288-3.756 1.752c-1.165.441-2.138 1.276-2.751 2.36a5.32 5.32 0 0 0-.598 3.574 6.68 6.68 0 0 1 .426 2.614 5.74 5.74 0 0 1-1.568 2.255c-.742.888-1.237 1.953-1.439 3.091s-.101 2.31.291 3.398a6.61 6.61 0 0 0 1.942 2.801c.879.749 1.941 1.254 3.078 1.465 1.047.038 2.077.272 3.039.687 1.017.629 1.462 1.858 2.188 2.826a5.69 5.69 0 0 0 6.176 1.936 5.28 5.28 0 0 0 1.239-.619c.418.555.972.993 1.607 1.275s1.331.395 2.023.332l-.426-24.2a2.01 2.01 0 0 0 .589.756 1.99 1.99 0 0 0 .873.396c3.872.871 4.452-7.125 3.581-9.293a22.66 22.66 0 0 0 3.872-4.095c1.24-2.427 1.852-5.125 1.781-7.85 1.472.029 7.425-1.946 6.796-2.13z"/></g><path d="M482.048 205.016c-.126-2.458-3.127-2.981-5.257-1.752-1.171.678-2.071 2.043-1.936 4.647.291 6.96 7.222 5.236 7.222 5.033l-.029-7.928z" class="D"/><path d="M479.809 210.398s-.117.087-.32.194a1.24 1.24 0 0 1-.9.058 3.03 3.03 0 0 1-1.106-1.114c-.263-.462-.399-.987-.394-1.519-.044-.597.048-1.197.271-1.752a1.37 1.37 0 0 1 .312-.595c.153-.169.345-.297.559-.373a.6.6 0 0 1 .726.3c.106.193.068.329.106.339s.145-.117.078-.407c-.05-.171-.155-.321-.3-.426-.198-.135-.442-.188-.678-.145a1.69 1.69 0 0 0-.758.406c-.214.199-.373.449-.462.726a4.15 4.15 0 0 0-.338 1.936c.096 1.404.871 2.682 1.887 2.904.19.048.387.051.579.011s.371-.123.525-.243c.213-.126.242-.29.213-.3z" class="C"/><path d="M498.58 214.211a22.28 22.28 0 0 1 6.466 1.22 21.23 21.23 0 0 1-6.466-1.22z" class="B"/><path d="M499.613 358.996c.135 0-3.446 32.912-7.996 73.568l-8.499 73.481c-.135-.019 3.436-32.912 7.996-73.568l8.499-73.481zm-16.129-34.092c-.067.319-.185.626-.348.91a7.98 7.98 0 0 1-.533 1.026c-.242.444-.51.874-.803 1.287a18.51 18.51 0 0 1-2.585 2.991c-1.177 1.112-2.476 2.085-3.872 2.904-1.417.781-2.917 1.401-4.472 1.849-1.264.353-2.562.57-3.872.649a11.68 11.68 0 0 1-1.52 0 6.62 6.62 0 0 1-1.142-.078c-.329-.01-.655-.069-.968-.174 0-.097 1.384.087 3.591-.116 1.286-.132 2.556-.381 3.795-.745 3.047-.895 5.851-2.47 8.199-4.608a20.11 20.11 0 0 0 2.604-2.904l1.926-2.991zm41.716 12.855s-.271 0-.736-.106c-.662-.156-1.309-.367-1.936-.63a17.3 17.3 0 0 1-9.302-9.263c-.271-.626-.485-1.273-.639-1.936-.107-.465-.155-.726-.116-.736s.358.968 1.084 2.517c1.89 3.995 5.115 7.206 9.118 9.08 1.559.716 2.595.987 2.527 1.074zm-22.394-14.648a5.81 5.81 0 0 1 .078 1.249v3.417c-.049 2.904-.194 6.863-.513 11.248-.426 6.05-1.084 11.287-1.491 13.881v.068h-.106a12.39 12.39 0 0 1-1.936-.077c.638-.11 1.286-.165 1.936-.165l-.117.107 1.22-13.882.658-11.228.165-3.408a6.23 6.23 0 0 1 .106-1.21zM278.881 501.254l-1.936 25.594 4.259 20.696a2.6 2.6 0 0 1 .001 1.069c-.074.353-.219.687-.427.981a2.62 2.62 0 0 1-.782.73c-.308.187-.652.308-1.009.356-.415.06-.838.018-1.234-.119s-.753-.37-1.041-.675c-3.707-3.969-16.901-18.789-16.91-20.163l.154-27.443 18.925-1.026z" class="C"/><path d="M278.988 550.678l-19.215-22.998-.058 1.084c-.043.936.238 1.858.794 2.612 1.53 2.004 5.808 7.436 16.127 18.5.294.318.664.558 1.074.699s.85.176 1.278.103z" class="B"/><g class="F"><path d="M265.471 519.694a1.61 1.61 0 0 1 .561.988c.061.387-.022.782-.232 1.112-.239.311-.586.519-.974.582a1.53 1.53 0 0 1-1.107-.243c-.321-.263-.533-.638-.594-1.049a1.67 1.67 0 0 1 .265-1.177 1.58 1.58 0 0 1 2.197-.107" class="I"/><path d="M273.734 539.17c.654-.774 1.453-1.412 2.352-1.878a8.22 8.22 0 0 1 2.982-.407c0-.058-.291-.271-.881-.387a4.04 4.04 0 0 0-2.323.281c-.733.31-1.362.824-1.811 1.481-.329.503-.387.881-.319.91zm1.637 3.532c.757-.369 1.536-.692 2.333-.968a20.36 20.36 0 0 1 2.517-.184c.087-.126-1.123-.736-2.653-.358s-2.323 1.433-2.197 1.51zm-4.755-8.121c.116.135 1.442-1.084 3.494-1.752a24.69 24.69 0 0 1 3.872-.678c-1.316-.434-2.745-.382-4.026.145-1.349.343-2.533 1.152-3.34 2.285zm-.099-7.831c.058.164 1.501-.359 3.349-.32s3.282.552 3.35.397a6.56 6.56 0 0 0-6.699-.077zm.389-7.522c1.132-.309 2.302-.456 3.476-.436 1.161.193 2.291.541 3.359 1.036 0-.048-.223-.387-.794-.755a5.69 5.69 0 0 0-5.131-.455c-.629.261-.948.552-.91.61zm3.515-1.866a2.35 2.35 0 0 0 .087-.968 6.81 6.81 0 0 0-.639-2.585c-.227-.615-.649-1.137-1.2-1.491a1.06 1.06 0 0 0-1.21.175 1.68 1.68 0 0 0-.464 1.132c.012.865.326 1.697.886 2.356a3.73 3.73 0 0 0 2.182 1.255c.844.131 1.71.009 2.485-.351a4.32 4.32 0 0 0 1.871-1.672c.108-.186.176-.392.199-.605s.001-.43-.063-.634a1.05 1.05 0 0 0-.43-.475c-.19-.109-.409-.157-.626-.135a3.62 3.62 0 0 0-1.732.784c-.73.529-1.36 1.185-1.859 1.936-.208.255-.36.553-.445.871a11.78 11.78 0 0 1 2.526-2.439c.45-.337.974-.56 1.53-.649a.54.54 0 0 1 .341.068c.103.059.183.151.23.261.035.138.041.281.017.421a1.03 1.03 0 0 1-.153.392c-.405.616-.977 1.103-1.649 1.405s-1.416.406-2.145.299c-.718-.129-1.371-.498-1.851-1.047a3.21 3.21 0 0 1-.792-1.973c-.002-.297.101-.585.291-.813.085-.083.195-.137.313-.154s.238.002.345.057c.47.296.836.733 1.045 1.249a10.1 10.1 0 0 1 .91 3.33z"/></g><path d="M323.854 499.143l-.832 21.209s21.296 7.967 21.489 11.897l-41.159-.135-.058-33.087 20.56.116z" class="C"/><path d="M310.302 518.551c-.399.121-.74.386-.955.743a1.69 1.69 0 0 0-.216 1.193c.105.409.368.762.729.98a1.62 1.62 0 0 0 1.207.191c.421-.127.779-.405 1.006-.78s.306-.822.223-1.253a1.67 1.67 0 0 0-.856-.905c-.391-.18-.837-.203-1.244-.063m-6.834 13.485l.125-3.339 39.417 1.384s1.83.803 1.617 2.091l-41.159-.136z" class="B"/><path d="M323.697 520.168c0 .203-1.016.291-2.003.968s-1.53 1.491-1.714 1.413.126-1.239 1.336-2.003 2.42-.562 2.381-.378zm4.311 1.801c.048.194-.823.534-1.51 1.386s-.891 1.741-1.084 1.731-.33-1.142.542-2.178 2.052-1.132 2.052-.939zm2.435 5.178c-.184 0-.464-.968.058-2.062s1.462-1.539 1.539-1.365-.493.755-.91 1.665-.503 1.743-.687 1.762zm-7.09-11.828c-.088.184-.968-.097-2.149 0s-2.023.435-2.12.261.745-.891 2.081-.968 2.284.552 2.188.707z" class="F"/><path d="M337.782 325.203s4.995 15.42 4.491 30.182c-.203 5.711-11.461 160.398-11.461 160.398l-28.566 1.21.968-148.308-2.1.552-8.886 73.152c-.649 9.235-10.319 79.482-10.319 79.482l-26.456-.89 3.872-88.592 5.227-85.077 2.266-24.791 70.964 2.682z" fill="#3e3e3e"/><path d="M298.529 353.77c.351.226.723.414 1.113.561 1.038.472 2.136.798 3.263.968.792.114 1.599.085 2.381-.087.926-.187 1.778-.641 2.449-1.307a5.93 5.93 0 0 0 1.404-2.71c.261-1.017.396-2.072.561-3.146.649-4.308 1.045-8.228 1.249-11.074a90.1 90.1 0 0 0 .193-3.379 6.41 6.41 0 0 0 0-1.239c-.112.401-.178.814-.193 1.23l-.368 3.349c-.3 2.827-.755 6.776-1.404 11.026-.329 2.129-.522 4.278-1.781 5.595a5.42 5.42 0 0 1-4.433 1.355 14.1 14.1 0 0 1-3.224-.804 5.28 5.28 0 0 0-1.21-.338z" class="C"/><path d="M305.465 333.364s-.174-.126-.542-.135c-.523.008-1.027.192-1.433.522a2.6 2.6 0 0 0-.72.914c-.167.356-.253.745-.248 1.138a2.57 2.57 0 0 0 .561 1.34c.311.383.726.669 1.195.823a2.57 2.57 0 0 0 1.452.045 2.58 2.58 0 0 0 1.245-.746c.232-.322.388-.692.457-1.082a2.63 2.63 0 0 0-.06-1.173 2.3 2.3 0 0 0-.842-1.268c-.3-.213-.504-.233-.513-.213a2.96 2.96 0 0 1 .968 1.568c.065.319.061.649-.011.968s-.21.618-.405.881c-.276.268-.62.456-.996.543s-.766.069-1.132-.051-.692-.337-.943-.628a2.11 2.11 0 0 1-.482-1.026c-.005-.326.06-.649.19-.949a2.28 2.28 0 0 1 .565-.784 2.91 2.91 0 0 1 1.694-.687zm21.991-.454c.364.926.856 1.795 1.462 2.585a29.17 29.17 0 0 0 4.733 5.391c1.79 1.597 3.766 2.971 5.886 4.095a11.12 11.12 0 0 0 2.739 1.162 28.79 28.79 0 0 0-2.546-1.501 36.65 36.65 0 0 1-5.711-4.162c-1.756-1.583-3.361-3.327-4.792-5.208a26.1 26.1 0 0 0-1.771-2.362z" class="G"/><path d="M276.477 361.369c-.358.718-.832 1.373-1.403 1.936a19.26 19.26 0 0 1-9.729 5.76c-.763.227-1.556.332-2.352.309 2.58-.646 5.066-1.622 7.396-2.904 2.241-1.429 4.289-3.144 6.088-5.101zm64.141 5.574c-1.554.021-3.086-.367-4.443-1.123-1.43-.61-2.67-1.593-3.592-2.846.107-.106 1.578 1.307 3.814 2.391s4.24 1.423 4.221 1.578z" class="C"/><path d="M334.234 179.945a3.24 3.24 0 0 0-.697-1.655c-1.156-1.621-2.887-2.74-4.84-3.126 1.665-.731 3.171-1.78 4.433-3.088.625-.661 1.068-1.471 1.288-2.352a5.29 5.29 0 0 0-.029-2.682 6.35 6.35 0 0 0-1.569-2.131c-.668-.592-1.452-1.037-2.303-1.305-2.311-.972-4.879-1.146-7.299-.494a7.76 7.76 0 0 0-3.203 1.812c-.906.853-1.594 1.912-2.005 3.086l2.333 5.983c.306 2.365 1.243 4.605 2.711 6.485.667.852 1.645 1.694 2.7 1.471a2.24 2.24 0 0 0 1.118-.774c.285-.368.448-.813.47-1.278.021-.925-.154-1.846-.513-2.701a12.57 12.57 0 0 0 4.646 4.037c.298.201.639.329.996.372a2.26 2.26 0 0 0 1.056-.121c.25-.163.449-.395.574-.667s.172-.574.133-.872z" class="B"/><path d="M320.95 173.778c.067-.478.041-.964-.077-1.432-.33-1.936-.736-3.93-2.091-5.305-.105-.134-.238-.243-.39-.318s-.321-.116-.491-.118c-.533.068-.755.746-.678 1.278a6.57 6.57 0 0 1 .31 1.588l.91 3.872c.036.425.205.829.484 1.152.143.159.326.277.53.342a1.2 1.2 0 0 0 .632.025 1.31 1.31 0 0 0 .584-.419c.153-.192.249-.422.277-.665z" class="D"/><path d="M317.43 200.331c1.624-4.178 2.883-8.488 3.766-12.884a27.12 27.12 0 0 0-.668-13.262c-.213-.638-2.101-4.965-2.778-4.917-.484 0 .639 4.046.387 4.453-2.33 4.046-3.373 8.705-2.991 13.358a60.48 60.48 0 0 0 2.284 13.252z" class="B"/><path d="M316.77 222.188l1.617-38.894c.697-11.2-5.237-20.938-16.456-21.296h-1.22a19.85 19.85 0 0 0-13.342 5.58 19.86 19.86 0 0 0-6.018 13.151c-.561 9.748-1.055 20.58-.861 25.807.387 10.754 11.19 12.167 11.19 12.167l-.078 5.654s.746 6.127 10.774 6.417 14.394-8.586 14.394-8.586z" class="D"/><path d="M291.694 218.705c4.97-.129 9.797-1.681 13.91-4.473 0 0-3.233 7.909-13.987 7.193l.077-2.72zm-7.526-28.636c.005.402.166.786.451 1.07a1.54 1.54 0 0 0 1.069.45 1.45 1.45 0 0 0 .576-.084c.184-.066.353-.169.497-.301a1.48 1.48 0 0 0 .343-.471c.081-.178.127-.37.133-.567-.005-.401-.167-.785-.452-1.069s-.667-.445-1.068-.451c-.196-.009-.391.019-.576.086s-.354.168-.498.301-.26.292-.342.47a1.46 1.46 0 0 0-.133.566zm-.405-5.332c.194.194 1.336-.697 2.991-.726s2.904.755 3.059.552-.116-.445-.648-.823c-.73-.474-1.589-.714-2.459-.687a4.05 4.05 0 0 0-2.372.823c-.503.406-.667.774-.571.861zm15.439 5.332a1.54 1.54 0 0 0 .447 1.066 1.53 1.53 0 0 0 1.063.454c.197.011.393-.017.578-.084a1.51 1.51 0 0 0 .499-.3 1.46 1.46 0 0 0 .345-.472c.083-.178.13-.37.137-.567a1.55 1.55 0 0 0-.453-1.066c-.284-.283-.666-.446-1.067-.454-.196-.009-.391.019-.576.086s-.353.168-.498.301a1.45 1.45 0 0 0-.341.47 1.5 1.5 0 0 0-.134.566zm.775-4.762c.194.204 1.336-.687 2.992-.726s2.904.765 3.058.562-.116-.455-.658-.823a4.21 4.21 0 0 0-2.449-.697 4.07 4.07 0 0 0-2.381.832c-.494.407-.658.765-.562.852zm-5.639 13.136a10.71 10.71 0 0 0-2.691-.426c-.426 0-.833-.106-.91-.387-.047-.434.042-.874.252-1.258l1.171-3.253 2.604-8.47c-.194-.067-1.656 3.63-3.272 8.248l-1.123 3.262c-.249.518-.314 1.105-.184 1.665a1.06 1.06 0 0 0 .291.382 1.07 1.07 0 0 0 .425.218c.237.051.477.077.717.077a10.72 10.72 0 0 0 2.72-.058zm4.878-17.249c.222.416 1.819-.001 3.775-.078s3.581.251 3.785-.184c.087-.204-.242-.581-.968-.968a6.3 6.3 0 0 0-2.904-.561 6.22 6.22 0 0 0-2.856.765c-.629.416-.939.823-.832 1.026zm-15.682.037c.349.368 1.665-.058 3.253-.126s2.904.175 3.252-.232c.126-.193-.097-.561-.697-.9-.821-.42-1.742-.608-2.662-.542a4.91 4.91 0 0 0-2.575.832c-.552.407-.726.794-.571.968z" class="B"/><path d="M317.691 191.319c.184-.087 7.347-2.362 7.279 4.995s-7.434 5.808-7.444 5.576.165-10.571.165-10.571z" class="D"/><path d="M319.792 199.062a3.08 3.08 0 0 0 .349.184c.152.066.317.101.484.101a1.22 1.22 0 0 0 .484-.101c.784-.28 1.442-1.51 1.491-2.836.026-.63-.09-1.259-.339-1.839a1.5 1.5 0 0 0-.367-.601 1.49 1.49 0 0 0-.601-.367.66.66 0 0 0-.446.037.65.65 0 0 0-.319.311c-.097.204-.048.349-.087.358s-.165-.125-.097-.425a.77.77 0 0 1 .29-.455.97.97 0 0 1 .707-.184 1.79 1.79 0 0 1 .818.401 1.81 1.81 0 0 1 .518.751c.309.638.455 1.343.426 2.052-.058 1.481-.833 2.904-1.936 3.165a1.37 1.37 0 0 1-1.171-.203c-.184-.155-.223-.349-.204-.349zm-33.467-30.268c-1.181-.678 2.458-4.482 5.411-5.808 4.453-1.936 11.229-3.049 15.294-1.82 4.84 1.471 8.925 3.988 11.316 8.499 2.305 4.604 3.337 9.741 2.991 14.878.039 1.567-.345 3.115-1.113 4.482-1.055 1.607-3.039 2.604-2.991 4.84.02.408-.04.815-.178 1.198a3.08 3.08 0 0 1-.626 1.038c-1.374 1.404-3 0-3.726-1.326-1.578-2.904-1.694-6.36-1.781-9.68a21.76 21.76 0 0 1 .58-6.999c.388-1.219.968-2.362 1.297-3.61a4.39 4.39 0 0 0 .175-1.891c-.08-.635-.298-1.245-.639-1.788a4.42 4.42 0 0 0-.581-.619c-1.012-.912-2.248-1.539-3.581-1.816a7.69 7.69 0 0 0-4.008.238c-4.172 1.403-11.287 3.465-13.116 2.033-2.624-2.072-3.234-3.398-3.234-3.398l-1.49 1.549zm3.411 46.114c-.155 0-.252-.717-.068-1.559s.571-1.432.716-1.374 0 .716-.135 1.5-.349 1.442-.513 1.433zm2.01.261c-.164 0-.193-.562-.164-1.201s.116-1.171.281-1.19.348.532.309 1.22-.261 1.21-.426 1.171zm1.828.137c-.165 0-.271-.581-.232-1.278s.193-1.258.358-1.249.261.581.232 1.278-.203 1.259-.358 1.249zm2.38-.522c-.164 0-.387-.455-.503-1.074s-.077-1.152.077-1.181.388.445.504 1.074.087 1.142-.078 1.181z" class="B"/><path d="M286.247 225.248l6.331-3.107 24.055.416 4.53 2.691-4.53 10.135-12.923 2.207h-9.932l-5.527-7.725-2.004-4.617z" class="D"/><g class="C"><path d="M269.318 227.521s-7.744 1.191-10.716 6.554-5.159 15.681-5.159 15.681a25.49 25.49 0 0 0-3.776 11.713s3.224-3.949 9.826-3.969c6.989 0 15.584 7.744 15.584 7.744l-5.759-37.723z"/><path d="M269.319 227.521l14.297-2.981 7.115-1.936s-3.146 12.458 12.739 12.061 14.684-12.061 14.684-12.061l13.301 3.726c1.161.146 10.919 2.575 10.919 2.575l-3.572 25.807.203 41.692 3.369 34.741 1.394 13.901s-33.348 5.953-47.849 0a278.44 278.44 0 0 0-32.079-10.387s1.297-9.68 2.284-19.592a60.41 60.41 0 0 1 3.969-16.679l-2.381-63.123c.174-.581 1.607-7.744 1.607-7.744z"/></g><path d="M317.601 255.672H289.81v27.791h27.791v-27.791z" class="F"/><path d="M342.374 228.907s3.223-.416 7.357 6.718 5.885 17.027 5.885 17.027l1.152 9.893s-10.512-10.522-21.78-1.878l3.001-10.764s-2.507-8.141-.629-13.901 5.014-7.095 5.014-7.095z" class="C"/><g class="D"><path d="M249.668 261.471c0 .968-.968 16.65 0 23.058s1.781 10.28 4.017 11.297 6.592.968 8.712 1.829 7.588 4.676 18.391 2.846 25.169-12.197 29.699-13.01a75.17 75.17 0 0 1 8.712-.968l11.954-2.691 1.472-9.68-29.04.813c-3.814.407-9.554 2.033-20.947 1.423s-8.345-.813-8.345-.813l.851-10.251s-6.775-6.776-14.073-7.618a13.36 13.36 0 0 0-6.15.527c-1.98.655-3.779 1.763-5.253 3.238z"/><path d="M267.713 275.478c-.552-.746-.629-2.44.087-3.03-.935-.969-1.64-2.137-2.062-3.417a2.31 2.31 0 0 1 .194-2.285c-.416-.561-.71-1.204-.862-1.887-.068-.343-.037-.698.089-1.024s.345-.609.628-.815c.852-.513 1.936 0 2.71.658a14.2 14.2 0 0 1 2.226 2.226 1.34 1.34 0 0 1-.235-.501c-.041-.182-.044-.371-.007-.554a1.32 1.32 0 0 1 .22-.508 1.33 1.33 0 0 1 .41-.373 2.33 2.33 0 0 1 1.124-.223 2.32 2.32 0 0 1 1.092.339c1.358.811 2.479 1.962 3.253 3.34 2.015 3.125 4.247 6.104 6.679 8.915"/></g><g class="B"><path d="M283.202 276.31c-.4-.351-.763-.74-1.084-1.162l-2.788-3.32-1.81-2.411-1.878-2.904c-.718-.988-1.656-1.796-2.74-2.362-.261-.124-.548-.19-.837-.19a1.95 1.95 0 0 0-.837.19c-.235.132-.411.345-.497.599a1.09 1.09 0 0 0 .032.776c.03.049.066.095.107.136l-.436.396c-.583-.704-1.231-1.353-1.936-1.936-.569-.591-1.332-.959-2.149-1.035-.347.05-.661.236-.872.518s-.301.635-.251.982c.1.727.382 1.417.823 2.004l.106.174-.135.136c-.166.217-.278.471-.326.74s-.034.546.045.808a7.16 7.16 0 0 0 .533 1.559c.391.845.913 1.622 1.548 2.304l.117.135-.136.107c-.298.299-.471.701-.484 1.123a3.14 3.14 0 0 0 0 .968c.062.271.146.536.252.793 0 0-.262-.203-.426-.755a3.45 3.45 0 0 1-.126-1.035c-.009-.508.183-.997.532-1.365v.232a8.79 8.79 0 0 1-1.694-2.343c-.27-.521-.475-1.074-.61-1.645a2.24 2.24 0 0 1-.058-1.042c.065-.346.21-.673.426-.952v.309c-.516-.653-.85-1.431-.968-2.255a2.28 2.28 0 0 1 .349-1.345c.14-.214.329-.393.551-.52s.471-.202.727-.216c.968.046 1.882.454 2.565 1.142.708.614 1.357 1.295 1.936 2.033l-.436.397c-.081-.076-.15-.164-.203-.262-.194-.381-.231-.822-.105-1.231a1.65 1.65 0 0 1 .782-.956c.343-.165.719-.251 1.099-.251s.756.086 1.099.251a8.3 8.3 0 0 1 2.904 2.565c.736 1.026 1.22 2.042 1.849 2.904l1.732 2.42 2.633 3.436c.402.416.761.87 1.075 1.356z"/><path d="M278.36 275.301c-1.598-1.482-3.062-3.101-4.375-4.84l-3.872-5.256c.164-.107 2.081 2.081 4.375 4.888 1.44 1.62 2.737 3.362 3.872 5.208zm-5.496-1.295c-1.38-.964-2.637-2.092-3.746-3.359-1.936-1.936-3.34-3.794-3.205-3.872a30.04 30.04 0 0 1 3.63 3.485c1.936 1.946 3.447 3.63 3.321 3.746zm-2.141 1.529c-.125.107-.88-.493-1.694-1.365s-1.364-1.645-1.248-1.761.871.493 1.684 1.355 1.375 1.694 1.258 1.771z"/><path d="M284.254 276.377c-1.259.094-2.524.094-3.785 0l-4.114-.145-5.014-.329a25.99 25.99 0 0 0-4.966-.058 13.39 13.39 0 0 0-3.872.968 8.66 8.66 0 0 0-2.333 1.384c-.241.239-.519.438-.822.59 0 0 .203-.3.677-.764a7.3 7.3 0 0 1 2.304-1.588c1.266-.589 2.619-.965 4.007-1.113a24.03 24.03 0 0 1 5.073 0l5.004.377 4.095.271c1.258.032 2.511.168 3.746.407z"/></g><path d="M334.959 260.667a131.83 131.83 0 0 0-3.824 23.116l-34.79 2.245-14.113 13.426s9.331 6.38 26.359 6.718 24.258-2.904 32.524-3.271 11.2-2.062 12.749-7.406 2.807-22.264 2.904-25.777a44.43 44.43 0 0 0-.842-7.928s-10.087-9.264-20.967-1.123z" class="D"/><g class="B"><path d="M331.495 283.801c-.164 0-.377-2.633-.154-5.876s.784-5.808.968-5.808-.136 2.623-.349 5.808l-.465 5.876z"/><path d="M331.668 283.278s-.136.126-.426.32-.726.455-1.317.774a25.65 25.65 0 0 1-5.217 2.042 40.53 40.53 0 0 1-8.218 1.298 19.05 19.05 0 0 0-4.753.774c-1.578.523-3.175 1.278-4.84 2.013l-16.843 7.493a37.86 37.86 0 0 1-5.315 1.791l-1.491.309c-.176.025-.356.025-.532 0l1.936-.581c1.773-.539 3.513-1.185 5.208-1.936l7.512-3.484 9.263-4.172c1.579-.753 3.194-1.424 4.84-2.014a19.41 19.41 0 0 1 4.84-.765c2.745-.126 5.471-.516 8.141-1.161 1.8-.447 3.553-1.063 5.237-1.839 1.317-.571 1.907-.949 1.975-.862z"/><path d="M341.057 287.221c-.096.145-2.062-1.23-4.84-2.217s-5.12-1.229-5.101-1.404 2.478-.203 5.305.843 4.743 2.71 4.636 2.778zm-67.054-23.66c-.316-.913-.532-1.857-.649-2.816l-.968-6.893-.619-6.94a12.48 12.48 0 0 1 0-2.904c.236.936.381 1.891.436 2.855l.774 6.912.832 6.902a14.73 14.73 0 0 1 .194 2.884zm60.955-2.894c.019-1.067.12-2.132.3-3.184l.678-7.677.716-7.695c.097-1.07.315-2.126.649-3.146-.009 1.069-.087 2.135-.233 3.194l-.532 7.696-.862 7.686a15.37 15.37 0 0 1-.716 3.126zm-63.069-20.88c-.174 0-.697-2.246-2.052-4.743s-2.904-4.201-2.817-4.327a13.39 13.39 0 0 1 3.325 4.052 13.41 13.41 0 0 1 1.515 5.018h.029zm48.193-15.825a1.57 1.57 0 0 1 0 .484 7.92 7.92 0 0 1-.223 1.384 12.33 12.33 0 0 1-2.236 4.617 16.46 16.46 0 0 1-5.914 4.782 30.06 30.06 0 0 1-8.945 2.614 15.29 15.29 0 0 1-4.84.087c-1.51-.253-2.956-.795-4.259-1.597a11.48 11.48 0 0 1-4.84-5.808 11.7 11.7 0 0 1-.697-5.092c.048-.463.126-.922.232-1.375a1.34 1.34 0 0 1 .155-.464s-.106.658-.155 1.858a12.38 12.38 0 0 0 .852 4.918c.923 2.315 2.588 4.259 4.734 5.527 1.252.747 2.635 1.25 4.075 1.481a14.67 14.67 0 0 0 4.685-.087 30.59 30.59 0 0 0 8.79-2.527c2.254-1.055 4.239-2.606 5.808-4.539a12.86 12.86 0 0 0 2.342-4.424c.339-1.171.339-1.849.436-1.839zm-21.106-22.364a10.78 10.78 0 0 1-3.185.852c-1.069.287-2.175.411-3.282.368 1.013-.445 2.086-.736 3.185-.862a10.91 10.91 0 0 1 3.282-.358z"/></g><path d="M207.046 518.726l.455-11.422 19.902-.745-.3 13.978-7.241 4.365-12.816-6.176z" class="D"/><path d="M227.54 517.934v1.316s22.109 9.119 22.264 13.33l-44.044-.649.813-14.646c6.524 3.156 13.368 3.572 20.967.649z" class="B"/><g class="F"><path d="M210.979 522.037c-.424.125-.787.401-1.021.776a1.8 1.8 0 0 0-.247 1.257 1.72 1.72 0 0 0 .746 1.04c.373.238.824.323 1.258.238.445-.138.825-.433 1.071-.83a1.94 1.94 0 0 0 .265-1.329 1.79 1.79 0 0 0-.895-1.004c-.417-.206-.898-.241-1.342-.099m-5.054 9.844l.194-3.524 42.146 1.936s1.936.881 1.714 2.256l-44.054-.668z" class="I"/></g><path d="M227.686 519.376c0 .213-1.084.29-2.159.968s-1.645 1.568-1.839 1.481.145-1.326 1.452-2.12 2.594-.532 2.546-.329zm4.588 1.975c0 .213-.89.561-1.636 1.461s-.968 1.859-1.181 1.849-.329-1.239.62-2.333 2.197-1.181 2.197-.977zm2.528 5.565c-.194.049-.474-1.035.087-2.207s1.588-1.616 1.675-1.442-.542.803-.968 1.771-.562 1.869-.794 1.878z" class="C"/><path d="M180.426 493.23l.309 34.18 15.769-1.132 3.456-33.299-19.534.251z" class="D"/><path d="M197.048 519.568s-11.074 7.696-16.456 1.065l-1.394 3.224-6.263 22.932c-.206.724-.139 1.5.189 2.178s.896 1.212 1.593 1.5c.542.21 1.132.264 1.703.156s1.101-.373 1.53-.766c4.578-4.249 21.209-19.912 21.034-22.032l-.077-5.624a2.9 2.9 0 0 0-.531-1.598c-.33-.468-.792-.828-1.328-1.035z" class="B"/><g class="F"><path d="M175.247 550.621l23.736-24.752v1.229c.126 1.336-.475 1.859-1.123 2.711-1.936 2.536-7.241 8.209-19.854 20.047-.366.341-.808.589-1.29.722s-.989.148-1.478.043h.009zm20.253-28.41c-.364.256-.618.641-.712 1.077a1.77 1.77 0 0 0 .209 1.275 1.81 1.81 0 0 0 2.381.513 1.73 1.73 0 0 0 .512-.482 1.72 1.72 0 0 0 .275-.647 1.71 1.71 0 0 0-.008-.702 1.7 1.7 0 0 0-.289-.641c-.14-.191-.317-.352-.522-.471a1.71 1.71 0 0 0-.667-.221c-.235-.028-.473-.005-.699.064a1.7 1.7 0 0 0-.615.341" class="I"/></g><g class="C"><path d="M182.082 537.951c-.174.087-.842-1.442-2.604-2.255s-3.397-.465-3.436-.649.358-.3 1.055-.387c.914-.101 1.837.061 2.662.465a4.67 4.67 0 0 1 2.004 1.771c.348.61.397 1.036.319 1.055zm-2.124 3.881c-.145.125-1.094-.814-2.633-1.249s-2.904-.194-2.904-.368 1.346-.765 3.098-.242 2.594 1.762 2.439 1.859zm6.084-8.807c-.136.135-1.597-1.326-3.93-2.207s-4.414-.813-4.424-.968 2.168-.552 4.656.416 3.843 2.633 3.698 2.759zm.517-7.019c-.078.174-1.723-.504-3.872-.581s-3.872.416-3.872.242 1.636-.968 3.94-.881 3.901 1.084 3.804 1.22z"/><path d="M181.478 525.369c-.028-.369.028-.741.165-1.085.283-.978.764-1.887 1.413-2.671.431-.623 1.053-1.088 1.772-1.326.244-.058.499-.038.733.053a1.23 1.23 0 0 1 .573.46c.237.413.313.899.213 1.364-.269.952-.858 1.782-1.667 2.349s-1.79.839-2.776.768a4.96 4.96 0 0 1-2.688-1.031c-.775-.601-1.356-1.418-1.668-2.347a1.63 1.63 0 0 1-.065-.717 1.64 1.64 0 0 1 .249-.677 1.23 1.23 0 0 1 1.355-.387c.688.281 1.289.738 1.743 1.326.679.754 1.214 1.627 1.578 2.575.166.331.255.695.261 1.065-.556-1.216-1.29-2.341-2.178-3.34a4.04 4.04 0 0 0-1.549-1.123c-.13-.047-.271-.053-.405-.017s-.252.114-.34.221a1.14 1.14 0 0 0-.136.477c-.01.167.016.335.078.491.288.797.801 1.495 1.475 2.01s1.483.826 2.329.894a3.73 3.73 0 0 0 2.364-.648c.692-.476 1.203-1.172 1.45-1.976a1.32 1.32 0 0 0-.107-.968.66.66 0 0 0-.311-.259.67.67 0 0 0-.405-.031c-.608.196-1.14.579-1.52 1.094-.849 1.025-1.505 2.195-1.936 3.456z"/></g><g class="B"><path d="M232.862 318.982l.339 3.765 9.196 16.456s4.114 24.771 1.936 41.285c-2.701 20.483-6.195 50.133-7.425 64.334-.735 8.392-8.15 70.393-8.15 70.393l-22.448-.213 1.481-80.131c.222-9.942-.571-52.834-.571-52.834l-.968-56.928 28.226-7.105"/><path d="M200.031 516.123L207.136 378l4.191-53.24-31.702-8.412-1.113 6.621s-11.616 28.546-11.18 36.929l4.017 83.674 7.308 72.097 21.374.454z"/></g><path d="M208.384 329.424a1.89 1.89 0 0 0-.087.523c0 .406-.077.9-.135 1.5l-.31 5.547c-.203 4.685-.348 11.151-.455 18.304l-.281 18.305-.135 5.537v1.51c-.025.177-.025.356 0 .533.052-.17.081-.346.087-.523 0-.406.077-.91.126-1.5.106-1.317.213-3.204.31-5.547.213-4.685.348-11.161.455-18.305l.29-18.305.126-5.546v-1.51c.028-.174.031-.35.009-.523z" class="C"/><path d="M172.19 342.328s.281.155.833.329c.317.104.64.193.968.261.456.106.918.183 1.384.233a18.52 18.52 0 0 0 3.639.067 20.66 20.66 0 0 0 4.366-.91 20.39 20.39 0 0 0 4.027-1.936c1.044-.641 2.017-1.391 2.904-2.236.387-.348.678-.716.968-1.016a6.76 6.76 0 0 0 .658-.823 3.23 3.23 0 0 0 .475-.765c-.088-.067-.843.968-2.362 2.314-.905.781-1.876 1.481-2.904 2.091-1.255.731-2.577 1.337-3.95 1.81-1.378.462-2.798.786-4.24.968a20.05 20.05 0 0 1-3.542.048l-3.224-.435zm57.876-10.648a6.34 6.34 0 0 0 .968 2.042c1.009 1.544 2.269 2.908 3.727 4.037a16.88 16.88 0 0 0 4.839 2.623c.71.285 1.463.446 2.227.475.067-.175-3.398-.91-6.718-3.534s-4.888-5.779-5.043-5.643z" class="G"/><path d="M191.844 233.563l25.294-1.975 9.767 7.037-6.108 58.245 8.092 28.546h-45.283l-5.827-52.485 14.065-39.368z" fill="#6f6f6f"/><path d="M162.947 330.131c-6.495-4.569-17.598-13.552-18.653-18.566-1.385-6.64 18.275-59.532 22.147-63.956s22.177-13.01 22.177-13.01l1.026-1.655c1.113-1.8 2.769-5.43 4.84-5.43l.339 2.526.397 5.498c.484 2.846 2.633 15.963 5.034 22.758a60.04 60.04 0 0 1 3.446 19.457l-.107 71.187c-.832 7.744-4.278 22.777-4.278 22.777s-27.279-8.983-33.58-23.107c-2.749-6.166-2.788-18.488-2.788-18.488" class="C"/><path d="M188.532 242.527c0 .068-1.23.407-3.204 1.055-5.138 1.696-10.023 4.08-14.52 7.086-1.733 1.142-2.759 1.936-2.808 1.859.194-.234.415-.445.659-.629.445-.378 1.113-.901 1.936-1.51 2.217-1.598 4.568-3 7.027-4.192 2.453-1.191 5.005-2.162 7.628-2.904a28.39 28.39 0 0 1 2.401-.61c.284-.098.581-.15.881-.155zm2.214 82.145c.035.321.035.646 0 .968a7.72 7.72 0 0 1-.155 1.162 10.99 10.99 0 0 1-.358 1.519 13.53 13.53 0 0 1-.639 1.791 16.57 16.57 0 0 1-.968 1.936 19.86 19.86 0 0 1-3.049 3.93 20.36 20.36 0 0 1-4.018 3.03c-.624.348-1.271.656-1.936.92-.579.247-1.178.448-1.79.6-.502.145-1.013.254-1.53.329a7.42 7.42 0 0 1-1.171.126c-.322.037-.646.037-.968 0 0-.107 1.423-.136 3.601-.794.595-.172 1.177-.386 1.742-.639a18.11 18.11 0 0 0 1.936-.968 21.3 21.3 0 0 0 3.872-2.904c1.146-1.153 2.156-2.432 3.011-3.814a20.09 20.09 0 0 0 .968-1.887c.262-.56.488-1.136.677-1.723.61-2.149.668-3.592.775-3.582zm-21.674-62.978c-.66-1.952-1.172-3.952-1.529-5.982a41.44 41.44 0 0 1-1.055-6.079c.669 1.945 1.177 3.943 1.52 5.972.517 1.998.873 4.035 1.064 6.089z" class="B"/><path d="M179.487 322.854s-10.077 4.326-6.776 9.68c2.236 3.63 6.911 6.892 6.911 6.892 4.714-2.701 8.025-5.528 10.319-10.755l-10.454-5.817z" class="D"/><g class="B"><path d="M162.949 330.131s.658.455 1.936 1.084a16.45 16.45 0 0 0 6.03 1.433l-.145.126a11.44 11.44 0 0 1 2.614-5.605 17.77 17.77 0 0 1 6.001-4.559 4.69 4.69 0 0 0 1.462-1.491c.421-.585.633-1.294.6-2.013a4.35 4.35 0 0 0-1.094-1.936 11.72 11.72 0 0 0-1.781-1.617c-.983-1.131-1.864-2.345-2.633-3.63-.735-1.343-1.556-2.636-2.459-3.872l-1.248-1.549c-.426-.513-.804-1.065-1.181-1.597l-2.13-3.223v-.049-.058a60.34 60.34 0 0 1-.213-6.776l.368-6.244.639-10.406.455-6.892.145-1.849c.011-.214.037-.427.078-.638a2.96 2.96 0 0 1 0 .638l-.068 1.859-.31 6.902-.532 10.415-.33 6.234c-.055 2.262.022 4.524.233 6.776v-.106l2.12 3.204 1.152 1.568s.851 1.017 1.258 1.559a32.5 32.5 0 0 1 2.488 3.93 24.87 24.87 0 0 0 2.488 3.475h-.049a11.87 11.87 0 0 1 1.859 1.704 4.74 4.74 0 0 1 1.2 2.168 2.48 2.48 0 0 1-.155 1.258c-.135.376-.31.736-.523 1.075-.403.649-.95 1.198-1.597 1.607a17.65 17.65 0 0 0-5.885 4.404c-1.341 1.531-2.241 3.399-2.604 5.401v.136h-.223c-2.118-.129-4.188-.682-6.088-1.626-.502-.251-.984-.539-1.443-.862a4.81 4.81 0 0 1-.435-.358z"/><path d="M169.052 302.049c-.566.012-1.131-.014-1.694-.077-1.123-.271-2.904-1.094-3.949.687-1.259.478-2.415 1.192-3.408 2.101l-1.219 1.18c.216-.538.546-1.024.968-1.422.968-1.028 2.157-1.822 3.476-2.326a9.37 9.37 0 0 1 4.142-.578c.587.015 1.163.164 1.684.435zm29.094 38.614a2.51 2.51 0 0 0-1.21 1.094 2.02 2.02 0 0 0-.229.822c-.017.287.028.574.132.843a1.86 1.86 0 0 0 .716.704 1.87 1.87 0 0 0 1.933-.084c.284-.191.509-.455.652-.766a2 2 0 0 0 .059-.853c-.042-.286-.144-.559-.301-.802-.321-.453-.779-.792-1.307-.968 0 0 .175-.068.494 0 .441.134.826.41 1.094.784a2.3 2.3 0 0 1 .387 1.985 2.28 2.28 0 0 1-2.005 1.425 2.29 2.29 0 0 1-1.245-.303 2.27 2.27 0 0 1-.883-.929c-.121-.329-.165-.68-.129-1.03a2.32 2.32 0 0 1 .332-.983c.218-.39.558-.7.968-.881.358-.116.542-.087.542-.058zm1.573-13.416a2.61 2.61 0 0 0-1.22 1.103 2.02 2.02 0 0 0-.224.823c-.015.288.032.574.137.842.171.296.419.54.719.703s.638.242.979.226.671-.125.954-.317a1.86 1.86 0 0 0 .649-.766c.085-.275.107-.566.065-.85a1.94 1.94 0 0 0-.307-.796 2.58 2.58 0 0 0-1.307-.968s.175-.068.484 0c.448.125.839.402 1.104.784a2.24 2.24 0 0 1 .415.923c.065.336.052.683-.038 1.013-.16.405-.434.755-.789 1.009a2.29 2.29 0 0 1-1.21.419 2.27 2.27 0 0 1-2.124-1.234 2.26 2.26 0 0 1 .193-2.004 2.03 2.03 0 0 1 1.026-.881c.31-.077.484-.048.494-.029zm3.612-21.305a3.44 3.44 0 0 1-.339-.668l-.881-1.985-2.962-7.376a203.55 203.55 0 0 1-7.744-25.081 143.66 143.66 0 0 1-2.604-14.22l-.59-6.292-.174-2.855c-.059-.92 0-1.791 0-2.633l.145-4.54c0-.658.077-1.287.116-1.859s.145-1.084.203-1.548l.32-2.14c.024-.252.072-.502.145-.745a4.53 4.53 0 0 1 0 .755l-.213 2.149-.165 1.549c-.058.581 0 1.19-.067 1.858l-.068 4.511v2.633c0 .92.135 1.859.203 2.836.097 1.936.387 4.056.639 6.254.619 4.385 1.433 9.196 2.633 14.162 2.029 8.495 4.546 16.866 7.541 25.071l2.807 7.434.774 2.013a4.12 4.12 0 0 1 .281.717z"/></g><path d="M247.832 343.236c-.177.366-.395.71-.648 1.026-.436.639-1.114 1.54-1.994 2.624-2.303 2.81-4.86 5.402-7.638 7.744s-5.77 4.414-8.935 6.195c-1.219.687-2.216 1.2-2.904 1.52a5.81 5.81 0 0 1-1.122.455c.32-.246.663-.46 1.026-.639.677-.378 1.655-.968 2.836-1.656 6.173-3.731 11.725-8.405 16.456-13.852.91-1.035 1.636-1.936 2.12-2.497a5.41 5.41 0 0 1 .803-.92z" class="E"/><path d="M221.253 167.12c.599-.339 1.112-.811 1.499-1.381s.636-1.221.73-1.903.029-1.376-.19-2.029-.585-1.246-1.071-1.734c-.755-.755-1.761-1.219-2.458-2.023-.54-.71-1.013-1.468-1.414-2.265-.764-1.194-1.798-2.192-3.019-2.914s-2.594-1.145-4.008-1.239a11.62 11.62 0 0 0-7.909 2.517 8.84 8.84 0 0 1-2.826 1.82 11.78 11.78 0 0 1-3.253.077 7.42 7.42 0 0 0-3.699 1.022 7.41 7.41 0 0 0-3.651 6.452 7.4 7.4 0 0 0 1.029 3.697 6.38 6.38 0 0 0-4.057 7.162 6.38 6.38 0 0 0 2.239 3.766c1.168.952 2.635 1.46 4.141 1.433 1.834-.175 3.614-.715 5.237-1.587 6.821-3.025 13.966-5.256 21.296-6.65" class="B"/><path d="M191.864 212.763a22.77 22.77 0 0 1-5.808-14.453c-.165-5.295.726-11.906 4.027-16.049-2.275-2.498-1.307-5.247.348-8.18s4.588-4.946 7.618-6.418a36.12 36.12 0 0 1 14.52-3.62c4.085-.145 9.535.571 10.077 3.524.208.802.181 1.646-.076 2.433a4.34 4.34 0 0 1-1.376 2.01c2.839.952 5.431 2.522 7.589 4.598 5.053 4.927 6.989 9.873 6.311 15.401s-1.935 9.805-5.256 13.29m-3.309 6.476a5.2 5.2 0 0 1 2.071-1.249h-.155c.145-.009.291-.009.436 0 .265-.067.54-.079.81-.035a1.97 1.97 0 0 1 .758.287 3.7 3.7 0 0 1 1.936 1.868 4.42 4.42 0 0 1 .284 2.362 4.43 4.43 0 0 1-.981 2.169 3.38 3.38 0 0 1-1.562 1.264 3.39 3.39 0 0 1-2.004.153 3.38 3.38 0 0 1-1.736-1.012 3.37 3.37 0 0 1-.854-1.819 4.21 4.21 0 0 1-.022-2.124 4.22 4.22 0 0 1 1.019-1.864z" class="C"/><path d="M195.223 235.548l-3.272-47.287a4.12 4.12 0 0 1 1.062-2.796c.692-.766 1.647-1.243 2.674-1.338l21.945-5.266c7.018-.658 11.616 8.025 11.935 15.063.397 7.821.572 17.424-.425 23.232-2.004 11.693-10.91 13.058-10.91 13.058l.078 7.066-8.093 21.964-14.994-23.696z" class="D"/><path d="M226.918 202.841c.001.393-.154.769-.429 1.05a1.5 1.5 0 0 1-1.042.45c-.194.013-.388-.013-.571-.077a1.44 1.44 0 0 1-.495-.298c-.143-.13-.258-.289-.337-.466a1.42 1.42 0 0 1-.126-.563c.002-.391.155-.765.428-1.045a1.51 1.51 0 0 1 1.033-.455 1.43 1.43 0 0 1 .573.078c.184.063.353.164.496.295a1.46 1.46 0 0 1 .341.467c.081.177.125.369.129.564zm.51-3.972c-.184.194-1.316-.658-2.904-.678s-2.817.785-2.991.581.116-.445.639-.813c.706-.473 1.541-.72 2.391-.707.84.013 1.656.287 2.333.785.464.387.629.745.532.832zm-15.446 4.581c-.002.392-.157.768-.431 1.049s-.648.442-1.04.452c-.191.011-.382-.015-.563-.078s-.347-.161-.49-.289a1.45 1.45 0 0 1-.339-.456 1.43 1.43 0 0 1-.137-.552c-.001-.391.152-.767.425-1.047s.645-.444 1.036-.453a1.43 1.43 0 0 1 .566.074c.182.062.35.161.493.289a1.42 1.42 0 0 1 .342.457c.083.174.13.362.138.554zm-.411-4.472c-.184.193-1.317-.659-2.904-.678s-2.817.784-2.992.581.107-.436.639-.804a4.03 4.03 0 0 1 2.391-.706 3.87 3.87 0 0 1 2.333.784c.416.387.581.745.533.823zm5.679 12.07c.856-.253 1.74-.399 2.633-.436.406 0 .803-.116.871-.397a2.07 2.07 0 0 0-.262-1.229l-1.181-3.166-2.642-8.257c.184-.067 1.665 3.534 3.301 8.025l1.132 3.156a2.32 2.32 0 0 1 .194 1.616 1.03 1.03 0 0 1-.687.601c-.228.059-.462.088-.697.087-.884.116-1.779.116-2.662 0zm1.098 19.157c-5.519.021-10.935-1.494-15.643-4.375 0 0 3.872 8.373 15.662 7.415l-.019-3.04z" class="B"/><path d="M216.963 214.891c-.357-.539-.84-.981-1.407-1.289s-1.2-.475-1.845-.483c-.422-.001-.838.103-1.21.3s-.692.483-.929.833c-.262.404-.395.879-.381 1.36s.173.947.457 1.337.68.683 1.135.843.947.177 1.412.051c.905-.286 1.728-.784 2.401-1.452a1.75 1.75 0 0 0 .522-.6c.063-.129.091-.272.081-.415a.81.81 0 0 0-.139-.398" class="C"/><path d="M212.467 212.113c.271 0 .252 1.743 1.733 3.011s3.359 1.094 3.378 1.336-.426.339-1.219.348a4.34 4.34 0 0 1-2.808-1.016c-.761-.635-1.244-1.541-1.345-2.527-.058-.735.145-1.161.261-1.152zm-.237-17.511c-.164.435-1.781.213-3.678.416s-3.446.707-3.688.31c-.117-.194.155-.6.784-1.026a6.42 6.42 0 0 1 5.614-.542c.687.28 1.036.639.968.842zm14.662-.376c-.29.358-1.403 0-2.739-.068s-2.478.213-2.74-.174c-.106-.184.078-.552.571-.891a3.81 3.81 0 0 1 2.237-.571c.788.019 1.55.287 2.178.765.464.339.658.716.493.939z" class="B"/><g class="C"><path d="M219.161 182.222s-10.996-.368-19.554 11.897c-5.643 8.073-6.998 18.324-6.998 18.324l-3.872-19.631 3.359-8.848 7.676-4.162 14.443-.532 5.391 2.797"/><path d="M197.59 182.841c17.599-3.872 31.489 2.178 33.803 15.962l3.736-8.973-8.915-11.152-9.922-2.778-20.144 2.672 1.442 4.269zm-7.637 28.283a5.47 5.47 0 0 1 2.255-1.345h-.164l.464-.058c.287-.071.585-.082.876-.033a2.17 2.17 0 0 1 .818.314 4 4 0 0 1 2.12 2.003c.324.8.424 1.672.291 2.524a4.77 4.77 0 0 1-1.046 2.316c-.411.61-.997 1.081-1.681 1.351s-1.434.327-2.151.162a3.64 3.64 0 0 1-2.789-3.032c-.197-.729-.208-1.496-.032-2.23a4.51 4.51 0 0 1 1.039-1.972z"/></g><path d="M194.223 204.952a1.81 1.81 0 0 1-.774-.31 4.34 4.34 0 0 1-1.578-1.636c-.582-1.011-.745-2.21-.455-3.339l.513-1.859c.075-.306.075-.625-.001-.93a1.93 1.93 0 0 0-.435-.822c-.504-.449-1.071-.821-1.684-1.104a5.09 5.09 0 0 1-1.578-1.268 5.55 5.55 0 0 1-1.2-3.155 4.92 4.92 0 0 1 .377-2.236c.089-.269.242-.512.445-.707-.382.918-.548 1.911-.484 2.904a5.34 5.34 0 0 0 1.21 2.904c.405.475.902.864 1.462 1.142a6.76 6.76 0 0 1 1.81 1.181c.258.29.442.636.537 1.013a2.4 2.4 0 0 1 .005 1.146c-.135.706-.396 1.307-.551 1.936a4.21 4.21 0 0 0 .329 3.068c.323.646.794 1.206 1.374 1.636.426.271.688.358.678.436zm-2.606-23.911a7.44 7.44 0 0 0-.581 2.73 5.5 5.5 0 0 0 .843 2.836 10.3 10.3 0 0 0 2.739 2.488 5.01 5.01 0 0 1 1.355 1.539c.303.597.42 1.271.339 1.936-.215 1.006-.367 2.024-.455 3.049-.013.672.226 1.324.668 1.83.329.338.629.377.61.426s-.078 0-.203 0a1.45 1.45 0 0 1-.533-.272c-.267-.248-.482-.547-.634-.879a2.78 2.78 0 0 1-.247-1.057 21.2 21.2 0 0 1 .349-3.097 2.99 2.99 0 0 0-.31-1.655c-.312-.542-.734-1.014-1.239-1.385a10.2 10.2 0 0 1-2.817-2.633c-.554-.925-.833-1.99-.803-3.068a5.11 5.11 0 0 1 .484-2.081c.086-.268.236-.51.435-.707zm12.206 8.567s-.135.174-.484.096a.97.97 0 0 1-.484-.319 1.14 1.14 0 0 1-.251-.755c0-.6.319-1.21.358-1.82s-.474-1.162-1.162-1.52c-.727-.318-1.367-.806-1.868-1.423-.389-.525-.648-1.136-.755-1.781a2.44 2.44 0 0 1 .213-1.732c-.008.56.034 1.12.126 1.674a4.1 4.1 0 0 0 .765 1.568 4.83 4.83 0 0 0 1.761 1.278c.369.199.698.465.968.784a1.62 1.62 0 0 1 .368 1.181c-.087.784-.445 1.307-.455 1.801a.86.86 0 0 0 .09.527.87.87 0 0 0 .385.373c.203.106.367.029.425.068zm3.484-9.479s.116 0 .242.097a.88.88 0 0 1 .175.322c.035.118.045.243.028.365a4.91 4.91 0 0 1-.31.9c-.082.318-.082.651 0 .968.182.629.514 1.204.968 1.675.339.397.552.648.504.707s-.329-.126-.746-.475c-.57-.461-.981-1.091-1.171-1.8a2.09 2.09 0 0 1 .087-1.249c.145-.358.32-.6.378-.813a.97.97 0 0 0-.155-.697zm17.637-6.059s0 .184-.193.465a11.06 11.06 0 0 0-.707 1.152 2.39 2.39 0 0 0-.269.892 2.37 2.37 0 0 0 .095.928c.279.793.452 1.619.513 2.459-.008.873-.274 1.726-.765 2.449-.405.583-.951 1.056-1.587 1.374a2.71 2.71 0 0 1-1.849.358 10.17 10.17 0 0 0 1.684-.658c.619-.356 1.133-.87 1.49-1.489a4.06 4.06 0 0 0 .543-2.034 10.25 10.25 0 0 0-.465-2.372c-.089-.349-.107-.712-.052-1.069a2.66 2.66 0 0 1 .372-1.003c.25-.387.532-.753.842-1.094.203-.242.319-.377.348-.358zm8.191 8.355c.068.078-.523.339-.755 1.201-.116.435-.348.968-.513 1.529a10.27 10.27 0 0 1-.687 1.936 3.8 3.8 0 0 1-1.309 1.371 3.79 3.79 0 0 1-1.808.565c-.523.08-1.057-.044-1.491-.348.487.028.975.028 1.462 0 .564-.076 1.104-.28 1.577-.598a3.71 3.71 0 0 0 1.152-1.232c.273-.591.499-1.203.678-1.829l.62-1.51c.117-.39.358-.729.687-.968.232-.107.368-.146.387-.117zm1.364 11.8c.058 0 0 .3-.242.658a2.53 2.53 0 0 1-1.423.968c-.572.135-1.173.071-1.703-.184-.387-.203-.562-.426-.523-.474a4.96 4.96 0 0 0 2.11.193c1.114-.338 1.675-1.277 1.781-1.161zm-19.927-22.1c-.353.34-.677.709-.968 1.103-.322.482-.522 1.035-.585 1.612a3.61 3.61 0 0 0 .227 1.699c.363.613.578 1.302.629 2.013-.054.596-.291 1.161-.678 1.617-.639.755-1.19.968-1.219.968s.426-.436.968-1.181c.303-.419.477-.917.503-1.433-.075-.642-.289-1.26-.629-1.81a3.53 3.53 0 0 1-.194-2.12 3.81 3.81 0 0 1 .726-1.578c.571-.765 1.21-.939 1.22-.89zm-11.199 8.238c-.126-.058.252-1.093.281-2.42s-.271-2.381-.136-2.429a4.64 4.64 0 0 1-.145 4.84v.009zm-8.124-1.276s.107-.116.213-.349c.143-.332.18-.7.107-1.055-.146-.91-1.046-1.936-1.791-3.272a5.55 5.55 0 0 1-.687-2.071 3.18 3.18 0 0 1 .309-1.772 1.94 1.94 0 0 1 .852-.871c.281-.116.445-.087.445-.058s-.145.068-.348.213c-.288.224-.509.522-.639.862a4.04 4.04 0 0 0-.152 1.787c.084.6.301 1.174.636 1.678.707 1.259 1.617 2.372 1.713 3.466.051.419-.052.842-.29 1.19-.174.242-.358.281-.368.252zm11.256-5.075s.067-.145.251-.348a1.72 1.72 0 0 0 .533-.9 2.42 2.42 0 0 0-.755-1.355c-.426-.465-.968-.901-1.559-1.423-.606-.478-1.033-1.147-1.21-1.898a3.18 3.18 0 0 1 .474-1.771 3.75 3.75 0 0 1 .968-1.278 9.43 9.43 0 0 1-.697 1.433c-.256.497-.361 1.06-.3 1.616.187.632.57 1.188 1.094 1.588 1.075.968 2.314 1.936 2.323 3.155a1.66 1.66 0 0 1-.745.968c-.223.165-.358.242-.377.213zm10.87-1.723a2.1 2.1 0 0 0 .659-1.035c.08-.44.033-.894-.136-1.307-.235-.526-.514-1.031-.832-1.51-.339-.518-.563-1.102-.659-1.714a2.26 2.26 0 0 1 .339-1.539c.436-.784 1.084-.91 1.075-.832-.326.264-.593.594-.784.968a2.1 2.1 0 0 0-.213 1.268c.125.55.352 1.071.668 1.539.346.524.632 1.086.851 1.675.174.498.174 1.04 0 1.539-.101.342-.316.639-.609.842-.184.126-.359.135-.359.106z" class="F"/><g class="B"><path d="M221.161 172.009c-.445.038-.892.038-1.336 0l-3.63.068c-3.973.229-7.889 1.055-11.616 2.449-3.724 1.461-7.292 3.293-10.648 5.469l-3.059 1.936c-.36.268-.746.499-1.152.688.321-.313.671-.596 1.045-.843a78.78 78.78 0 0 1 2.982-2.1c3.326-2.273 6.898-4.163 10.648-5.634a37.25 37.25 0 0 1 11.78-2.275 35.73 35.73 0 0 1 3.659.088c.447.004.891.056 1.327.154zm-27.849 10.289h.116l.329-.135.533-.223.735-.261a21.47 21.47 0 0 1 4.84-1.075c2.467-.25 4.954-.192 7.406.174 1.384.184 2.826.475 4.317.813l4.54 1.239c6.185 1.936 10.909 5.925 13 9.584a16.68 16.68 0 0 1 1.839 4.627 14.46 14.46 0 0 1 .281 1.335l.068.349v.116-.126-.348c0-.31-.107-.765-.233-1.346a16.15 16.15 0 0 0-1.752-4.733c-2.071-3.737-6.834-7.812-13.077-9.748-1.539-.513-3.079-.9-4.569-1.239s-2.904-.62-4.337-.803c-2.473-.355-4.98-.393-7.463-.117-1.655.189-3.28.579-4.84 1.162l-.736.3-.523.242-.319.155c-.126.029-.155.048-.155.058z"/><path d="M216.236 182.753a2.65 2.65 0 0 0-.378 0c-.366.02-.732.063-1.093.125a15.41 15.41 0 0 0-3.872 1.201c-4.006 1.949-7.48 4.839-10.126 8.421a42.37 42.37 0 0 0-3.872 6.215 54.16 54.16 0 0 0-2.478 5.421 28.76 28.76 0 0 0-1.19 3.872c-.097.464-.165.823-.194 1.074a2.17 2.17 0 0 0 0 .378 1.55 1.55 0 0 0 .097-.368c.048-.242.135-.6.252-1.065a30.46 30.46 0 0 1 1.268-3.785c.743-1.837 1.583-3.634 2.516-5.382 1.108-2.154 2.387-4.215 3.824-6.166 2.629-3.544 6.05-6.425 9.99-8.412 1.203-.573 2.471-1.002 3.775-1.278.465-.077.823-.145 1.074-.164l.407-.087z"/></g><path d="M249.484 334.169c0 .755 3.126-.861 5.314-2.517 6.834-5.198 15.72-14.007 16.872-17.743 3.117-10.145-18.276-59.532-22.157-63.966s-22.177-13-22.177-13l-1.026-1.665c-1.104-1.8-2.759-5.421-4.84-5.421l-.3 2.527-.387 5.498c-.484 2.904 1.335 17.018-1.065 23.813-2.217 6.253-2.43 23-2.498 29.63v56.503c.833 7.744-.532 26.242-.532 26.242s24.277-7.879 30.579-22.003c2.749-6.156 2.255-17.898 2.255-17.898" class="C"/><path d="M227.427 244.861c0 .078 1.229.407 3.204 1.065a61.02 61.02 0 0 1 7.521 3.04c2.431 1.19 4.782 2.539 7.038 4.036l2.816 1.868c.049-.067-.213-.251-.658-.629l-1.936-1.52a47.76 47.76 0 0 0-14.646-7.124 23.8 23.8 0 0 0-2.41-.6c-.303-.086-.615-.132-.929-.136zm-2.212 82.153a3.41 3.41 0 0 0 0 .968c.021.394.076.786.164 1.171a11.69 11.69 0 0 0 .359 1.52c.167.609.381 1.204.638 1.781a15.89 15.89 0 0 0 .968 1.936 18.61 18.61 0 0 0 7.067 6.969c.628.341 1.275.649 1.936.92a12.26 12.26 0 0 0 1.8.591c.502.146 1.013.255 1.53.329a6.3 6.3 0 0 0 1.161.135c.322.041.647.041.968 0 0-.106-1.423-.135-3.601-.784-.593-.18-1.175-.397-1.742-.648-.666-.28-1.313-.603-1.936-.968a20.59 20.59 0 0 1-3.872-2.904c-1.149-1.149-2.16-2.43-3.01-3.814a15.92 15.92 0 0 1-.968-1.888c-.271-.559-.497-1.138-.678-1.733-.62-2.158-.678-3.591-.784-3.581zm21.67-62.988a39.1 39.1 0 0 0 1.529-5.982 38.27 38.27 0 0 0 1.055-6.079 40.8 40.8 0 0 0-1.529 5.982c-.503 1.998-.856 4.03-1.055 6.079z" class="B"/><path d="M236.477 325.186s10.077 4.336 6.776 9.68c-2.256 3.659-6.922 6.94-6.922 6.94-4.704-2.71-8.015-5.537-10.319-10.754l10.465-5.866z" class="D"/><g class="B"><path d="M253.007 332.464s-.648.455-1.936 1.084a16.35 16.35 0 0 1-6.021 1.471l.155.126c-.345-2.068-1.249-4.003-2.614-5.595-1.656-1.926-3.701-3.48-6.001-4.559-.599-.377-1.103-.887-1.471-1.491-.422-.588-.634-1.3-.601-2.023.191-.731.571-1.399 1.104-1.936a10.52 10.52 0 0 1 1.781-1.617c.983-1.127 1.867-2.338 2.643-3.62a32.82 32.82 0 0 1 2.458-3.872l1.249-1.539c.426-.513.804-1.065 1.181-1.607l2.12-3.214v-.058c.195-2.269.263-4.547.203-6.824l-.368-6.234-.629-10.406-.464-6.892-.136-1.859c-.006-.215-.035-.43-.087-.639a5.02 5.02 0 0 0 0 .649l.058 1.858.319 6.902.523 10.406.339 6.244a62.3 62.3 0 0 1-.232 6.776v-.107a102.32 102.32 0 0 1-2.12 3.204l-1.162 1.568-1.258 1.559c-.916 1.254-1.748 2.567-2.488 3.93-.761 1.261-1.625 2.456-2.585 3.572-.677.498-1.301 1.066-1.858 1.694a4.75 4.75 0 0 0-1.191 2.188 2.49 2.49 0 0 0 .145 1.258c.141.371.316.727.523 1.065.414.662.974 1.221 1.636 1.636 2.252 1.038 4.26 2.539 5.895 4.404a11.3 11.3 0 0 1 2.604 5.402v.135h.126c2.114-.132 4.18-.685 6.079-1.626.503-.251.985-.542 1.442-.871a2.26 2.26 0 0 0 .639-.542z"/><path d="M246.908 304.392a15.23 15.23 0 0 0 1.694-.078 10.65 10.65 0 0 1 3.939.678c1.258.486 2.417 1.197 3.418 2.1l1.21 1.181a3.81 3.81 0 0 0-.968-1.423c-.966-1.026-2.155-1.814-3.476-2.304a9.36 9.36 0 0 0-4.133-.58c-.587.012-1.163.158-1.684.426z"/></g><path d="M320.296 498.545a6.45 6.45 0 0 1 2.059 1.551c.576.651 1.014 1.41 1.29 2.233a11.54 11.54 0 0 1 .445 5.141c-.377 3.329-2.275 6.688-4.307 9.35-2.808-2.439-3.456-6.717-3.65-8.905-.3-3.456 1.259-9.883 4.163-9.37zm2.748 23.83a5.49 5.49 0 0 1 .179-2.856 5.5 5.5 0 0 1 1.592-2.381 7.38 7.38 0 0 1 5.402-1.694c.447-.003.889.09 1.298.273s.77.454 1.064.792c.214.363.326.776.326 1.196a2.35 2.35 0 0 1-.326 1.195c-.423.727-1.031 1.328-1.762 1.743-2.439 1.519-5.072 2.555-7.812 1.732" class="K"/><g class="E"><path d="M319.44 532.54c.009-.232.041-.462.096-.688l.339-1.849c.323-2.062.977-4.059 1.936-5.914a11.86 11.86 0 0 1 4.249-4.501c.541-.324 1.12-.581 1.723-.765.166-.053.333-.096.503-.126h.175c-.805.278-1.579.634-2.314 1.065a12.27 12.27 0 0 0-4.123 4.482c-.929 1.83-1.581 3.787-1.936 5.808l-.417 1.829a4.36 4.36 0 0 1-.231.659z"/><path d="M319.546 503.547a1.16 1.16 0 0 1 0 .3c0 .223 0 .503.058.852l.125 3.165c.088 2.672.155 6.36.136 10.435a281.51 281.51 0 0 1-.232 10.435c0 1.336-.107 2.411-.155 3.156 0 .358 0 .639-.058.861a2.5 2.5 0 0 1 0 .3c-.014-.099-.014-.2 0-.3v-.861c0-.774 0-1.849.077-3.165l.155-10.426-.068-10.435c0-1.307 0-2.381-.048-3.156v-.861c-.012-.1-.009-.201.01-.3z"/></g><path d="M318.184 524.31a12.88 12.88 0 0 0-2.378-5.569c-1.224-1.641-2.821-2.967-4.659-3.869-.968-.445-2.159-.745-2.904-.048s-.6 1.936-.223 2.904a11.01 11.01 0 0 0 10.126 6.834" class="K"/><path d="M311.605 518.068c.207.069.408.156.6.262l.668.358c.252.155.561.31.862.542a11.11 11.11 0 0 1 .968.736 12.92 12.92 0 0 1 1.045.968c.741.771 1.39 1.625 1.936 2.545a13.48 13.48 0 0 1 1.307 2.953 11.59 11.59 0 0 1 .329 1.365 10.43 10.43 0 0 1 .174 1.219c.017.323.017.646 0 .968.02.255.02.511 0 .765-.007.218-.03.434-.068.649-.058 0 0-.968-.125-2.401l-.194-1.2a13.58 13.58 0 0 0-.349-1.336c-.324-1.013-.759-1.986-1.297-2.904-.555-.904-1.205-1.747-1.936-2.517-.32-.341-.66-.664-1.016-.968-.31-.268-.632-.52-.968-.755-1.113-.813-1.955-1.2-1.936-1.249z" class="E"/><path d="M412.75 176.577l.523 42.137c.087 7.163-1.249 17.705-12.584 17.337-9.806-1.075-12.41-10.358-12.487-17.047 0-3.175-.068-5.808-.097-6.137 0 0-10.735-.881-11.616-11.49-.436-5.121-.484-15.759-.406-25.371a19.82 19.82 0 0 1 5.363-13.4 19.83 19.83 0 0 1 13.029-6.212l1.026-.077c11.064-.165 17.414 9.167 17.249 20.26z" class="H"/><path d="M388.107 212.867a25.7 25.7 0 0 0 13.552-5.101s-2.807 8.005-13.465 7.821l-.087-2.72z" class="J"/><path d="M394.182 180.352c.213.213 1.443-.775 3.214-.823s3.107.823 3.291.6-.126-.493-.706-.9a4.42 4.42 0 0 0-2.643-.755c-.931.036-1.826.375-2.546.968-.532.406-.707.813-.61.91zm1.821 3.339a1.42 1.42 0 0 0 .464.977c.276.252.642.384 1.017.369.183.001.366-.035.535-.105s.325-.174.453-.305a1.38 1.38 0 0 0 .298-.456c.067-.17.102-.355.098-.538-.025-.372-.193-.721-.469-.972a1.44 1.44 0 0 0-1.012-.373c-.184-.002-.367.034-.536.104a1.4 1.4 0 0 0-.453.304 1.39 1.39 0 0 0-.298.458 1.37 1.37 0 0 0-.097.537zm-6.273 9.021c-.878-.21-1.779-.304-2.681-.281-.416 0-.823-.068-.91-.348-.065-.429-.001-.867.184-1.259l.968-3.262 2.159-8.499c-.184-.058-1.462 3.669-2.837 8.306l-.968 3.281a2.37 2.37 0 0 0-.096 1.646 1.02 1.02 0 0 0 .296.366c.126.097.273.164.43.195.238.026.478.026.716 0 .915.077 1.837.027 2.739-.145zm5.208-19.92c.174.387 1.597.097 3.301.184s3.107.465 3.301.077c.087-.174-.174-.542-.755-.89a5.47 5.47 0 0 0-2.498-.707 5.23 5.23 0 0 0-2.526.504c-.6.3-.891.639-.823.832zm-16.873 4.172c.184.32 1.568 0 3.252-.087s3.079.165 3.253-.174c.077-.164-.203-.445-.784-.707-.791-.311-1.639-.45-2.488-.406-.857.025-1.699.233-2.468.61-.581.3-.852.6-.765.764z" class="E"/><path d="M412.458 184.543c.174-.096 7.134-2.691 7.434 4.579s-7.066 6.079-7.095 5.866-.339-10.445-.339-10.445z" class="H"/><path d="M414.911 192.104a2.33 2.33 0 0 0 .348.174c.311.126.659.126.968 0 .765-.31 1.356-1.558 1.336-2.904-.008-.624-.154-1.238-.426-1.8a1.42 1.42 0 0 0-.36-.607c-.169-.17-.378-.294-.608-.361-.146-.034-.299-.015-.432.055s-.238.183-.294.322c-.096.203 0 .349-.077.368s-.165-.116-.116-.426c.033-.182.128-.347.271-.465.193-.157.439-.233.687-.213.302.049.586.172.827.36a1.8 1.8 0 0 1 .548.715 4.32 4.32 0 0 1 .522 2.004c0 1.471-.687 2.904-1.723 3.223a1.33 1.33 0 0 1-.597.062c-.201-.025-.394-.096-.564-.207-.291-.116-.368-.281-.31-.3z" class="J"/><path d="M391.452 197.747c-.077-.184 1.346-.61 2.343-1.936a7.92 7.92 0 0 0 .968-1.936c.213-.532.377-.861.455-.832s.058.377-.058.968a5.35 5.35 0 0 1-.968 2.129 4.33 4.33 0 0 1-1.859 1.423c-.484.233-.861.252-.881.184zm-29.483-31.266c.136-.413.422-.759.803-.968.849-.384 1.784-.537 2.711-.445 2.831-.054 5.592-.892 7.976-2.42 1.112-1.601 2.356-3.106 3.717-4.502 3.214-3.32 5.808-5.575 8.596-6.669 3.543-1.433 9.458-2.004 13.146-1.036s7.008 3.959 7.521 7.744c2.071-1.752 5.179-1.742 7.696-.726h.067c2.808.968 4.405 3.969 5.228 6.834s1.18 5.924 2.7 8.49c.32.532.697 1.181.416 1.732a1.17 1.17 0 0 1-.534.466c-.222.097-.467.124-.705.076a3.37 3.37 0 0 1-1.306-.59 64.09 64.09 0 0 0 .968 2.246 6.5 6.5 0 0 1-3.05-.204c-.517 2.554-1.186 5.076-2.003 7.551a4.36 4.36 0 0 0-2.972.736c-.968.881-1.423 2.546-3.049 1.936-.833-.319-1.597-2.072-1.878-2.904a41.52 41.52 0 0 1-1.791-17.521c-1.165-1.28-2.569-2.32-4.133-3.059l.125.116c-2.962-1.026-6.321-2.043-9.128-.649-2.187 1.075-3.465 3.34-5.101 5.15-1.505 1.666-3.332 3.01-5.37 3.951a16.64 16.64 0 0 1-6.488 1.528c-.155 2.991.097 7.212-.068 10.194l-2.517-4.802a10.09 10.09 0 0 1-.542-1.055l-.058-.106c-.252-.583-.532-1.151-.842-1.704a1.87 1.87 0 0 1-1.209.395 1.86 1.86 0 0 1-1.182-.469c-.327-.291-.542-.686-.608-1.118a1.87 1.87 0 0 1 .25-1.248c.252-.347.556-.654.9-.91a2.95 2.95 0 0 1-1.312.74c-.493.128-1.012.127-1.505-.004-.482-.148-.903-.449-1.198-.858a2.32 2.32 0 0 1-.438-1.407 1.94 1.94 0 0 1 .371-.949c.205-.277.482-.494.801-.629a6.65 6.65 0 0 1-3.776-.833c-.755-.493-1.481-1.161-1.229-2.1z" class="E"/><path d="M403.095 159.377c.381.294.737.617 1.065.968a7.46 7.46 0 0 1 1.626 3.523c.185.889.276 1.794.272 2.701l-.146 3.127a29.2 29.2 0 0 0-.077 3.475 11.16 11.16 0 0 0 .242 1.839c.091.648.347 1.262.745 1.781a1.62 1.62 0 0 0 .685.448c.263.089.544.107.816.056a2.42 2.42 0 0 0 1.345-.765 5.48 5.48 0 0 0 .968-2.701h-.222c.326.8.762 1.549 1.297 2.227a3.17 3.17 0 0 0 2.061 1.122 2.09 2.09 0 0 0 1.094-.193c.32-.162.58-.419.746-.736.164-.295.242-.631.222-.968a1.31 1.31 0 0 0-.338-.823l-.117.097a6.86 6.86 0 0 0 2.372 1.772c.229.106.466.196.707.271l.251.067c-.076-.043-.157-.079-.242-.106a6.6 6.6 0 0 1-.687-.31c-.843-.42-1.591-1.01-2.197-1.733l-.117.107a1.35 1.35 0 0 1 .29.772c.013.281-.06.559-.212.796-.151.282-.388.509-.678.649-.3.144-.636.201-.968.164a2.96 2.96 0 0 1-1.936-1.065 8.84 8.84 0 0 1-1.239-2.178l-.155-.338-.067.367a5.38 5.38 0 0 1-.968 2.575 2.11 2.11 0 0 1-1.21.678c-.23.048-.469.035-.692-.04a1.31 1.31 0 0 1-.576-.386c-.367-.488-.607-1.061-.697-1.665a13 13 0 0 1-.233-1.791c-.05-1.152-.028-2.306.068-3.455l.126-3.146c-.008-.919-.111-1.834-.31-2.73-.275-1.325-.9-2.551-1.81-3.553-.319-.355-.691-.659-1.104-.9zm-32.775 10.318l.087.077.262.194c.352.232.721.439 1.103.619a9.31 9.31 0 0 0 4.54.823 12.06 12.06 0 0 0 6.35-2.352c2.245-1.724 4.119-3.884 5.508-6.35l2.091-3.814c.632-1.185 1.431-2.274 2.371-3.233a7.2 7.2 0 0 1 3.059-1.849c.522-.149 1.065-.214 1.607-.194a5.58 5.58 0 0 1 1.481.291c1.462.502 2.68 1.54 3.408 2.904.244.506.429 1.039.551 1.587.002-.035.002-.071 0-.106v-.329a5.59 5.59 0 0 0-.406-1.201 6.19 6.19 0 0 0-3.437-3.001 5.58 5.58 0 0 0-1.529-.309c-.564-.032-1.13.027-1.675.174-1.201.369-2.289 1.035-3.165 1.936a14.55 14.55 0 0 0-2.42 3.281l-2.091 3.805a20.78 20.78 0 0 1-5.43 6.282 11.93 11.93 0 0 1-6.273 2.381c-1.534.12-3.075-.132-4.492-.735-.518-.261-1.02-.556-1.5-.881zm-.968-4.667a1.76 1.76 0 0 0 .387.271c.361.215.737.406 1.123.572.576.243 1.172.438 1.781.58a12.56 12.56 0 0 0 2.285.31c.767.016 1.535-.036 2.294-.155a11.15 11.15 0 0 0 1.81-.455c.399-.139.787-.307 1.162-.503.141-.062.274-.139.397-.232l-1.607.571c-.59.178-1.192.314-1.801.406a13.83 13.83 0 0 1-2.255.136c-.752-.029-1.501-.123-2.236-.281a11.54 11.54 0 0 1-1.772-.523l-1.568-.697z" class="G"/><path d="M377.987 181.021c.204.213 1.433-.775 3.214-.823s3.098.832 3.291.6-.135-.494-.706-.9a4.52 4.52 0 0 0-2.643-.755c-.934.039-1.83.378-2.555.968-.523.406-.707.813-.601.91zm2.565 2.979c.023.375.191.726.47.978a1.44 1.44 0 0 0 1.02.368c.184.002.366-.032.536-.102a1.36 1.36 0 0 0 .453-.302 1.38 1.38 0 0 0 .299-.455 1.36 1.36 0 0 0 .097-.535 1.45 1.45 0 0 0-.476-.972c-.277-.251-.64-.385-1.015-.374a1.38 1.38 0 0 0-.982.409c-.128.129-.23.283-.3.452a1.41 1.41 0 0 0-.102.533z" class="E"/><path d="M433.715 497.207l2.207 26.494 7.744 20.454c.133.349.193.721.176 1.094s-.111.737-.275 1.072-.396.633-.681.875a2.71 2.71 0 0 1-.972.531c-.416.13-.856.157-1.284.078s-.831-.256-1.174-.523c-4.444-3.437-20.464-16.088-20.648-17.734-.232-2.13-4.308-28.179-4.308-28.179l19.215-4.162z" class="G"/><path d="M441.952 547.727l-23.542-21.2.233 1.936c.154 1.075.174 1.656.88 2.333a230.63 230.63 0 0 0 19.728 16.911c.717.562 1.84.281 2.701 0v.02z" class="E"/><path d="M423.039 518.271c.353.202.617.529.742.915s.102.806-.064 1.176a1.58 1.58 0 0 1-.895.755c-.383.129-.801.104-1.167-.068a1.73 1.73 0 0 1-.781-.972c-.131-.409-.104-.852.074-1.245.236-.354.6-.603 1.017-.691a1.63 1.63 0 0 1 1.21.217" class="F"/><path d="M434.685 536.819c.155.058.61-1.384 2.101-2.294.926-.491 1.939-.8 2.981-.91 0-.068-.339-.232-.968-.261-.824 0-1.629.234-2.323.677-.705.429-1.264 1.06-1.607 1.81-.252.571-.252.968-.184.978zm2.259 3.349c.145.097.9-.851 2.226-1.394.835-.252 1.685-.453 2.546-.6.058-.145-1.268-.571-2.778.068s-2.14 1.868-1.994 1.926zm-6.245-7.512c.135.116 1.297-1.356 3.282-2.372s3.871-1.152 3.823-1.326-1.936-.3-4.095.813a6.02 6.02 0 0 0-3.01 2.885zm-1.332-7.995c.087.154 1.491-.61 3.378-.881s3.446 0 3.485-.146-1.539-.745-3.572-.435-3.407 1.345-3.291 1.462zm-.858-7.763c.107.145 1.481-.891 3.495-.968a13.25 13.25 0 0 1 3.601.513c0-.058-.291-.358-.968-.649-.853-.358-1.778-.511-2.701-.445s-1.825.349-2.623.823c-.571.329-.842.677-.804.726zm3.295-2.489a2.33 2.33 0 0 0-.067-.968 7 7 0 0 0-1.075-2.536c-.334-.596-.854-1.066-1.481-1.336a1.1 1.1 0 0 0-.66-.001 1.09 1.09 0 0 0-.54.379 1.78 1.78 0 0 0-.291 1.239 3.87 3.87 0 0 0 1.296 2.257c.679.58 1.538.908 2.431.928a4.47 4.47 0 0 0 4.124-2.788 1.56 1.56 0 0 0 .106-.652c-.011-.221-.071-.438-.174-.636-.125-.189-.306-.334-.519-.414a1.07 1.07 0 0 0-.662-.031c-.632.216-1.198.589-1.645 1.084-.654.651-1.188 1.411-1.578 2.246a2.26 2.26 0 0 0-.31.968 12.13 12.13 0 0 1 2.178-2.904c.403-.416.901-.729 1.452-.91a.57.57 0 0 1 .649.242 1.05 1.05 0 0 1 .087.421 1.05 1.05 0 0 1-.087.421c-.308.699-.811 1.295-1.447 1.717s-1.381.653-2.145.664c-.758-.016-1.487-.288-2.07-.771a3.36 3.36 0 0 1-1.144-1.891c-.049-.302.013-.611.175-.871a.57.57 0 0 1 .293-.218c.118-.037.247-.036.365.005a2.74 2.74 0 0 1 1.268 1.104 10.48 10.48 0 0 1 1.471 3.252z" class="E"/><path d="M370.982 498.582l.968 22.428s-22.477 8.538-22.7 12.701l43.561-.339-.097-35.022-21.732.232z" class="G"/><path d="M385.426 519.017a1.78 1.78 0 0 1 1.239 2.023 1.71 1.71 0 0 1-1.936 1.259 1.87 1.87 0 0 1-1.307-2.149c.159-.432.478-.786.891-.986a1.77 1.77 0 0 1 1.327-.089" class="B"/><g class="E"><path d="M392.842 533.371l-.154-3.533-41.721 1.645s-1.936.862-1.704 2.227l43.579-.339zm-21.55-12.572c0 .213 1.074.3 2.129.968s1.617 1.568 1.811 1.481-.126-1.316-1.423-2.11-2.604-.533-2.517-.339zm-4.587 1.925c0 .203.872.561 1.607 1.452s.968 1.849 1.152 1.839.339-1.22-.59-2.313-2.169-1.181-2.169-.978zm-2.559 5.46c.194.049.484-.968-.068-2.178s-1.558-1.616-1.645-1.442.532.794.968 1.752.532 1.868.745 1.868zm7.453-12.526c.087.193 1.064-.107 2.265 0s2.149.445 2.255.261-.794-.968-2.216-.968-2.411.542-2.304.707z"/><path d="M363.401 337.488c0 1.298 5.062 180.59 5.062 180.59h26.93l5.45-153.369 6.369 81.921c0 1.733 5.625 72.31 5.625 72.31l24.964-2.033-1.655-161.472-3.049-23.677-69.696 5.73z"/></g><path d="M403.648 359.044a5.54 5.54 0 0 1-1.094.455l-3.039 1.055-.252.088v-.252l-.474-8.209-.358-8.78-.049-2.662a3.28 3.28 0 0 1 .058-.968 3.97 3.97 0 0 1 .146.968l.222 2.662.513 8.771.349 8.208-.271-.174 3.097-.9a4.95 4.95 0 0 1 1.152-.262zm-2.049-18.653s.087-.135.358-.232c.397-.112.821-.074 1.191.107.285.121.524.327.686.591a1.48 1.48 0 0 1 .214.88c-.038.383-.197.744-.455 1.03a1.8 1.8 0 0 1-.978.558c-.382.066-.776.016-1.13-.145a1.93 1.93 0 0 1-.854-.756 1.61 1.61 0 0 1 0-1.703c.211-.336.523-.598.891-.746.271-.087.426-.077.435-.048s-.61.203-.968.968c-.105.203-.155.43-.143.658a1.28 1.28 0 0 0 .211.639 1.5 1.5 0 0 0 .633.532c.257.116.54.155.819.117a1.37 1.37 0 0 0 .705-.408c.188-.203.31-.46.35-.735.023-.223-.021-.45-.129-.648a1.14 1.14 0 0 0-.471-.465c-.422-.211-.901-.279-1.365-.194zm12.358 1.84c-.145 0-.348-.755-.454-1.733s-.068-1.771.077-1.791.348.765.455 1.743.077 1.771-.078 1.781zm1.866-.176c-.145 0-.271-.832-.271-1.849s.106-1.849.251-1.858.271.832.281 1.849-.097 1.858-.261 1.858zm-32.451 1.24a4.52 4.52 0 0 1-.513-2.081c-.136-1.172-.126-2.13 0-2.14s.367.92.503 2.081a4.49 4.49 0 0 1 .01 2.14zm2.262.164a3.19 3.19 0 0 1-.658-2.178c-.119-.773.046-1.564.464-2.226.101.731.124 1.471.068 2.207a11.54 11.54 0 0 1 .126 2.197zm-8.533-2.39a2.68 2.68 0 0 1-.087.793 18.24 18.24 0 0 1-.542 2.101 22.78 22.78 0 0 1-3.34 6.389 23.05 23.05 0 0 1-5.256 5.082c-.62.434-1.266.829-1.936 1.181a2.83 2.83 0 0 1-.755.338c0-.067.968-.648 2.459-1.771 1.92-1.459 3.63-3.175 5.082-5.101a25.08 25.08 0 0 0 3.397-6.225l.978-2.787zm58.241 12.082c-.262.088-.537.131-.813.126-.75.07-1.505.07-2.255 0a14.77 14.77 0 0 1-6.902-2.556 13.74 13.74 0 0 1-4.598-5.508 11.28 11.28 0 0 1-.697-2.042c-.084-.249-.123-.511-.116-.775.087 0 .31 1.075 1.123 2.682 1.074 2.105 2.645 3.916 4.578 5.275a15.56 15.56 0 0 0 6.651 2.604c1.897.223 3.029.107 3.029.194zm-43.868 90.817c0 .116-4.502-.91-9.971-2.294s-9.883-2.614-9.844-2.74 4.491.91 9.97 2.294 9.874 2.595 9.845 2.74zm43.382-6.554c.067.116-3.814 2.275-8.712 4.84l-8.906 4.424c-.058-.116 3.814-2.265 8.712-4.84l8.906-4.424z" class="G"/><path d="M351.596 267.967l-.455 20.909s-8.005 4.259-10.067 4.52-13.784-1.22-13.784-1.22l.609 12.71s18.596 4.521 24.404 4.647 8.373-.126 9.418-1.423 4.84-2.904 5.876-8.761-1.936-31.382-1.936-31.382h-14.065z" class="H"/><path d="M361.534 298.7c-.882-2.068-2.102-3.975-3.61-5.644-1.616-1.563-3.485-2.843-5.528-3.785a5.2 5.2 0 0 1 1.936.62 13.55 13.55 0 0 1 6.66 6.873 5.53 5.53 0 0 1 .542 1.936z" class="J"/><path d="M328.747 293.395s-2.42-5.111-6.359-6.718-9.042-1.171-10.929-2.265-7.221-2.178-7.744-.358 2.836 3.039 6.263 4.182 4.84 1.645 4.52 3.107-4.52 4.375-5.759 4.733-5.063.872-5.082 2.624 1.142 1.529 3.117 1.529c2.032-.129 4.053-.395 6.05-.794 0 0 .968.233.503.804s-2.836 2.691-1.452 4.153a4.12 4.12 0 0 0 1.588.941c.593.189 1.222.242 1.839.152l2.768-.513s1.53 2.691 2.769 1.598.368.261.368.261 1.384 2.439 2.836 2.294 6.776-3.156 6.776-3.156l3.165-3.988-5.237-8.586z" class="H"/><path d="M315.787 303.172c-.068 0 .232-.61.968-1.336a5.51 5.51 0 0 0 .968-1.345 1.68 1.68 0 0 0 .253-.886c0-.313-.088-.619-.253-.886a1.73 1.73 0 0 0-.78-.491c-.3-.09-.62-.098-.924-.022-.533.133-1.025.396-1.433.765-.706.649-1.084 1.162-1.151 1.104a3.57 3.57 0 0 1 .968-1.346 3.34 3.34 0 0 1 1.558-.968 2.14 2.14 0 0 1 1.187.002c.387.113.735.334 1.001.637a1.77 1.77 0 0 1 .368 1.191 2.66 2.66 0 0 1-.301 1.074c-.3.525-.69.993-1.151 1.384-.862.678-1.23 1.152-1.278 1.123zm5.837 1.519c-.068 0 .716-1.287 1.858-3.359a25.44 25.44 0 0 0 1.743-3.756 7.39 7.39 0 0 0 .561-2.294 1.34 1.34 0 0 0-.108-.526c-.072-.167-.176-.317-.308-.442a1.06 1.06 0 0 0-.498-.215 1.05 1.05 0 0 0-.538.06c-.774.223-1.219 1.036-1.645 1.762l-1.239 2.13-2.12 3.591a8.02 8.02 0 0 0-1.201 2.478 3.27 3.27 0 0 0 0 .968s-.067-.068-.125-.242c-.085-.253-.112-.52-.078-.784a7.05 7.05 0 0 1 1.094-2.614l2.033-3.649 1.21-2.139a3.7 3.7 0 0 1 1.936-1.994c.248-.088.517-.11.777-.066a1.58 1.58 0 0 1 .713.317 1.85 1.85 0 0 1 .432.612 1.83 1.83 0 0 1 .149.734c-.073.848-.282 1.677-.619 2.459a23.68 23.68 0 0 1-1.859 3.765l-1.529 2.372c-.175.305-.39.584-.639.832zm4.511 2.14a4.28 4.28 0 0 1 .358-.968l1.142-2.429 1.723-3.572c.351-.659.538-1.393.542-2.14-.008-.371-.133-.731-.358-1.026a.89.89 0 0 0-.381-.314c-.154-.067-.325-.088-.49-.063-.678.174-1.104 1.045-1.578 1.665l-1.326 1.936-2.178 3.32-1.472 2.304a3.53 3.53 0 0 1-.59.784c.106-.311.254-.607.436-.881l1.345-2.323 2.091-3.388 1.307-1.936.726-.968c.265-.409.666-.71 1.132-.852a1.35 1.35 0 0 1 .759.083c.24.1.447.265.597.478.283.37.439.822.445 1.288-.005.825-.211 1.636-.6 2.362l-1.83 3.533-1.268 2.362a4.12 4.12 0 0 1-.532.745zM310.41 284.81c.116-.058.406.639.058 1.423s-1.046 1.045-1.085.92.388-.484.649-1.114.271-1.2.378-1.229zm21.057 20.018c.41-.523.76-1.091 1.046-1.694a5.81 5.81 0 0 0 .387-2.09c-.015-.875-.196-1.739-.532-2.546-.667-1.476-1.58-2.828-2.701-3.998a9.02 9.02 0 0 1-1.326-1.559 8.43 8.43 0 0 1 1.568 1.327 12.25 12.25 0 0 1 2.904 4.046c.357.866.538 1.794.532 2.73-.021.77-.199 1.527-.522 2.226-.253.664-.733 1.217-1.356 1.558z" class="J"/><path d="M376.786 224.339l12.226-4.792 22.535-1.277 10.6 4.026-14.52 8.064-12.507-.465-18.334-5.556z" class="H"/><path d="M454.333 257.319s-5.45-16.708-10.513-26.369c-.955-1.802-2.286-3.379-3.903-4.623s-3.481-2.127-5.467-2.588c-5.808-1.375-15.188-3.659-20.822-5.469 0 0-5.924 6.175-17.191 6.011-11.016-.165-13.32-2.653-13.32-2.653l-15.401 5.905s-10.948 3.93-12.836 8.78-5.198 31.654-5.198 31.654h15.963l-.301 47.587-2.991 23.87c1.114.194 74.943 3.33 74.943 3.33l-2.594-66.385-.213-13.039 19.844-6.011z" fill="#ff6a55"/><path opacity=".2" d="M408.782 250.852l2.285 16.737 11.084 4.946 8.179-6.979v-15.527l-21.548.823z" fill="#000"/><path d="M430.039 255.606c0 .135-4.598.251-10.28.251s-10.28-.116-10.28-.251 4.607-.252 10.28-.252a102.5 102.5 0 0 1 10.28.252zm-73.067-12.383c.055.144.094.293.116.445l.301 1.278c.395 1.599.886 3.174 1.471 4.714.736 1.936 1.771 4.307 3.039 6.921s2.295 5.721 3.427 9.041v.078l-.087 12.874-.271 26.049-.136 7.889-.067 2.149c-.002.25-.019.499-.049.745a3.53 3.53 0 0 1-.048-.755v-2.139-7.899l.135-26.039.117-12.874v.067l-3.34-9.031a70.61 70.61 0 0 1-2.962-6.979 35.6 35.6 0 0 1-1.355-4.773l-.223-1.306c-.04-.148-.063-.301-.068-.455zm78.688-7.762c.036.47.036.943 0 1.413l-.145 3.872-.494 12.72-.581 12.719-.222 3.872c-.001.475-.05.948-.146 1.414-.041-.471-.041-.944 0-1.414l.068-3.872.436-12.719.648-12.71.291-3.872c-.001-.478.047-.956.145-1.423z" class="E"/><path opacity=".3" d="M357.431 245.633a27.77 27.77 0 0 0 7.241 19.786c-1.501-6.854-5.247-13.233-7.241-19.786zm32.423 65.719c3.471-.463 6.638-2.227 8.857-4.937a41.92 41.92 0 0 0 5.954-8.615 33.88 33.88 0 0 0 3.484-13.552c-4.297 11.548-10.609 20.667-18.295 27.104z" fill="#000"/><path d="M409.514 279.234a1.9 1.9 0 0 1-.067.426l-.262 1.201-.493 1.878-.785 2.458a55.73 55.73 0 0 1-2.545 6.195 66.37 66.37 0 0 1-4.056 7.135c-1.529 2.277-3.204 4.453-5.015 6.514-1.485 1.672-3.072 3.25-4.752 4.724l-1.936 1.646c-.542.474-1.114.861-1.559 1.161l-.968.688c-.232.154-.358.232-.368.213.088-.112.193-.21.31-.291l.968-.765 1.5-1.219 1.936-1.685c1.639-1.499 3.194-3.089 4.656-4.762 1.775-2.06 3.423-4.226 4.937-6.486a68.36 68.36 0 0 0 4.066-7.066c.986-1.989 1.861-4.032 2.623-6.118.358-.881.6-1.704.842-2.42l.571-1.849.359-1.171a1.47 1.47 0 0 1 .038-.407zm-2.137-20.775c-.003.228-.032.456-.087.678l-.339 1.936-.639 3.029-1.026 3.979-.678 2.284-.832 2.449-2.052 5.334c-1.738 4.001-3.74 7.882-5.992 11.616a96.13 96.13 0 0 1-7.638 10.648c-1.316 1.52-2.545 2.982-3.814 4.25-.619.639-1.2 1.287-1.8 1.858l-1.733 1.646c-1.084 1.065-2.158 1.936-3.068 2.73s-1.723 1.432-2.411 1.936l-1.558 1.181c-.178.143-.365.272-.562.387.151-.173.32-.327.504-.465l1.5-1.249a45.13 45.13 0 0 0 2.352-2.003c.891-.814 1.936-1.694 3.011-2.769l1.704-1.665c.59-.581 1.161-1.22 1.771-1.868 1.249-1.278 2.459-2.74 3.766-4.259 5.543-6.707 10.106-14.167 13.552-22.158.755-1.849 1.51-3.601 2.081-5.285.29-.842.61-1.646.861-2.439l.697-2.266c.484-1.442.784-2.778 1.094-3.939a57.63 57.63 0 0 0 .726-3.011l.426-1.936c.046-.214.106-.424.184-.629z" class="E"/><g class="H"><path d="M407.157 348.967s5.256-4.269 6.776-6.205l2.517-3.069s6.302-1.887 8.615-4.549l6.118-6.505 7.463 7.821s-4.298 6.979-4.656 9.283-2.972 8.644-2.972 8.644l-14.336-8.566s-3.049 4.269-5.004 4.733c-1.597.378-4.405 1.539-4.521-1.587z"/><path d="M451.488 258.189s7.308 42.893 5.198 47.926-22.196 37.365-22.196 37.365l-9.274-7.744s14.404-32.912 14.375-35.477-5.101-36.939-5.101-36.939l16.998-5.131z"/></g><path d="M439.775 162.436l.639 1.045a7.18 7.18 0 0 0 2.972 2.739l1.103.542-1.055.639c-1.178.708-2.13 1.74-2.739 2.972l-.543 1.104-.629-1.055c-.711-1.18-1.746-2.131-2.981-2.74l-1.094-.561 1.045-.63c1.18-.711 2.131-1.746 2.74-2.981l.542-1.074zm-77.542-21.258l.831 1.045c.94 1.18 2.308 2.13 3.94 2.74l1.445.551-1.381.63c-1.558.708-2.814 1.739-3.62 2.971l-.716 1.104-.844-1.055c-.935-1.179-2.298-2.13-3.926-2.74l-1.458-.542 1.394-.629c1.558-.711 2.814-1.746 3.619-2.981l.716-1.094zm57.239-15.471l.629.716c.712.801 1.747 1.446 2.982 1.86l1.094.368-1.046.427c-1.18.483-2.13 1.185-2.739 2.024l-.542.742-.639-.709c-.708-.801-1.74-1.446-2.972-1.86l-1.104-.375 1.056-.427c1.179-.48 2.129-1.18 2.739-2.017l.542-.749zm-15.516 56.725l.223.358c.225.407.561.743.968.968l.377.184-.358.213a2.37 2.37 0 0 0-.968 1.016l-.194.378-.213-.359a2.44 2.44 0 0 0-1.016-.968l-.368-.183.358-.213a2.47 2.47 0 0 0 .968-1.017l.223-.377zm30.741 26.312l.339.552c.38.628.93 1.134 1.587 1.462l.581.29-.561.329a3.86 3.86 0 0 0-1.452 1.588l-.291.58-.339-.551c-.377-.627-.924-1.134-1.577-1.462l-.591-.29.561-.339c.627-.378 1.134-.925 1.462-1.578l.281-.581zm-74.651 3.871l.464.775a5.32 5.32 0 0 0 2.188 2.023l.813.397-.774.464c-.87.522-1.571 1.281-2.023 2.188l-.397.813-.465-.774c-.522-.867-1.281-1.566-2.188-2.014l-.813-.406.775-.465a5.23 5.23 0 0 0 2.013-2.188l.407-.813z" class="K"/><defs><filter id="A" x="0" y="0" width="662.166" height="603" filterUnits="userSpaceOnUse" color-interpolation-filters="sRGB"><feFlood flood-opacity="0"/><feBlend in="SourceGraphic"/><feGaussianBlur stdDeviation="50"/></filter><linearGradient id="B" x1="131.43" y1="72.594" x2="530.678" y2="530.457" gradientUnits="userSpaceOnUse"><stop stop-color="#b9b9b9" stop-opacity=".05"/><stop offset="1" stop-color="#533916" stop-opacity=".25"/></linearGradient></defs></svg>