<svg xmlns="http://www.w3.org/2000/svg" xmlns:v="https://vecta.io/nano" width="584" height="534" fill="none"><style><![CDATA[.B{fill:#263238}.C{fill:#101010}.D{fill:#ffbe9d}.E{fill:#eb996e}.F{fill:#455a64}]]></style><g filter="url(#A)"><rect x="100" y="100" width="383.178" height="334" rx="167" fill="url(#B)" fill-opacity=".85"/></g><path d="M508.001 334.561c4.38-2.26 9.53-2.55 14.39-1.75 2.61.43 5.33 1.21 7.11 3.18s2.11 5.41.08 7.09c-1.317.895-2.906 1.299-4.49 1.14-3.8 0-8-.71-11.06 1.58-1.74 1.3-2.89 3.47-5 4.11-1.037.24-2.123.137-3.095-.294a4.9 4.9 0 0 1-2.295-2.096c-.985-1.911-1.204-4.125-.61-6.19.25-1.436.829-2.793 1.691-3.968s1.984-2.133 3.279-2.802zM497.999 315.2c2.68 3.82 7.88 2.56 10.29.22s3.43-5.71 4.36-8.94c2.12-7.37 4.26-15.1 2.68-22.6-.38-2.275-1.376-4.402-2.88-6.15-.766-.858-1.743-1.5-2.835-1.864s-2.258-.434-3.385-.206c-2.62.7-4.25 3.26-5.43 5.71a53.83 53.83 0 0 0-5.33 23.12c0 3.73.43 7.63 2.53 10.71zm-7.353 5.48c2.91-3.44 3.46-8.48 2.16-12.8s-4.21-8-7.58-11a41.09 41.09 0 0 0-13.58-8 14.4 14.4 0 0 0-6.1-1c-1.044.058-2.057.371-2.951.911s-1.643 1.292-2.179 2.189c-1.43 2.72-.06 6 1.43 8.72a103.43 103.43 0 0 0 8.91 13.58c2.68 3.45 5.74 6.85 9.81 8.41s8.31 1.31 10.43-1.49" fill="#787878"/><g class="C"><path d="M497.817 372.869c.141-.569.222-1.153.24-1.74l.46-4.74a66.61 66.61 0 0 1 1.07-6.95c.623-2.799 1.469-5.545 2.53-8.21a30.26 30.26 0 0 1 4.19-7.43 15.68 15.68 0 0 1 5.3-4.4c1.403-.697 2.909-1.167 4.46-1.39.584-.019 1.164-.103 1.73-.25a8.09 8.09 0 0 0-1.76 0c-1.61.124-3.184.533-4.65 1.21-2.184 1.029-4.098 2.553-5.59 4.45-1.819 2.293-3.285 4.844-4.35 7.57a50.77 50.77 0 0 0-2.51 8.34c-.448 2.33-.756 4.684-.92 7.05l-.24 4.77a8.31 8.31 0 0 0 .04 1.72z"/><path d="M498.15 369.22c.03-.266.03-.535 0-.8v-2.31l.1-8.47c.18-7.15.79-14.84 2-25.69 1.13-10.2 2.64-22.07 4.23-29.79.34-1.76.69-3.34 1-4.72l.83-3.55.54-2.24a3.35 3.35 0 0 0 .14-.8 4.1 4.1 0 0 0-.28.76l-.67 2.21a88.03 88.03 0 0 0-.95 3.53l-1.11 4.7a261.22 261.22 0 0 0-4.45 27.64c-1.19 10.88-1.73 20.77-1.78 27.94 0 3.59 0 6.49.13 8.49 0 .94.1 1.7.14 2.3a3.02 3.02 0 0 0 .13.8z"/><path d="M498.185 350.13a15.89 15.89 0 0 0 0-2.41c-.09-1.54-.31-3.78-.74-6.52a86.16 86.16 0 0 0-2.12-9.5 77.96 77.96 0 0 0-4-11.25c-2.753-6.719-6.707-12.88-11.67-18.18a28.11 28.11 0 0 0-2.75-2.55c-.42-.36-.79-.71-1.17-1l-1.06-.74c-.634-.481-1.302-.916-2-1.3-.12.16 2.87 1.92 6.64 5.93 4.795 5.346 8.643 11.47 11.38 18.11 1.584 3.622 2.92 7.347 4 11.15a95.76 95.76 0 0 1 2.26 9.41c.5 2.71.78 4.92 1 6.46.015.801.092 1.6.23 2.39zm-18.451 33.681l1.91 26.21h33.67l1.92-26.21h-37.5z"/><path d="M521.244 373.48h-44.76v10.33h44.76v-10.33z"/></g><path d="M476.484 409.01v2.87h2.1 41.92v-2.87h-44.02z" fill="#787878"/><path d="M480.646 416.921l-2.06-5.04h40.32l-2.41 5.04h-35.85z" class="C"/><path d="M516.606 392.371s-.05.09-.16.25l-.5.66-2 2.51-.09.11-.08-.11-4.78-6.67h.28l-4.75 6.72-.15.21-.16-.2-5.63-6.69h.32c-.09.13-.2.26-.31.39l-5 6.31-.16.21-.16-.22-4.74-6.71h.27l-5.84 6.66-.11.12-.08-.14-1.83-3.07-.47-.82a1.49 1.49 0 0 1-.14-.29s.07.08.2.26l.51.79 1.93 3h-.19l5.76-6.74.14-.17.13.18 4.79 6.69h-.32l5-6.32.31-.39.16-.2.16.2 5.61 6.71h-.31l4.79-6.68.14-.2.14.2 4.71 6.73h-.17l2-2.45.55-.63a1.31 1.31 0 0 1 .23-.21zm1.09-8.731c0 .11-8.43.21-18.84.21s-18.84-.1-18.84-.21 8.44-.21 18.84-.21l18.84.21zm1.699 28.521c0 .12-9.16.21-20.47.21s-20.48-.09-20.48-.21 9.17-.21 20.48-.21l20.47.21z" fill="#959595"/><path d="M470.998 182.551a8.73 8.73 0 0 1-1.23 1.43l-3.17 3.21-3.26 3.12a8.32 8.32 0 0 1-1.44 1.2 7.9 7.9 0 0 1 1.22-1.43l3.18-3.22 3.26-3.12c.428-.456.912-.856 1.44-1.19zm49.861-.131a8.11 8.11 0 0 1 1.43 1.23l3.21 3.17 3.12 3.25a7.72 7.72 0 0 1 1.2 1.45c-.525-.35-1.005-.763-1.43-1.23l-3.22-3.17-3.12-3.27a7.59 7.59 0 0 1-1.19-1.43z" class="C"/><path d="M319 81l.59 1a6.78 6.78 0 0 0 2.78 2.56l1 .5-1 .6a6.66 6.66 0 0 0-2.56 2.78l-.51 1-.59-1a6.73 6.73 0 0 0-2.78-2.56l-1-.51 1-.59c1.101-.663 1.989-1.628 2.56-2.78l.51-1z" fill="#ffc100"/><path d="M382.731 123.41l.35.59c.389.658.961 1.19 1.647 1.529l.592.301-.592.349c-.653.391-1.179.961-1.517 1.641l-.302.59-.349-.59a4.02 4.02 0 0 0-1.647-1.511l-.593-.301.593-.349a3.98 3.98 0 0 0 1.516-1.641l.302-.608z" fill="#ffc727"/><path d="M370.686 20l.3.49c.332.551.814.995 1.39 1.28l.52.26-.49.29a3.35 3.35 0 0 0-1.29 1.4l-.25.51-.3-.49a3.3 3.3 0 0 0-1.39-1.28l-.52-.26.5-.3c.551-.332.995-.814 1.28-1.39l.25-.51zm40.797 33.779l.29.49a3.39 3.39 0 0 0 1.4 1.28l.51.26-.49.29a3.39 3.39 0 0 0-1.28 1.4l-.26.51-.29-.49a3.39 3.39 0 0 0-1.4-1.28l-.51-.26.49-.29a3.39 3.39 0 0 0 1.28-1.4l.26-.51zm-38.68 37.061l.3.49c.332.55.815.994 1.39 1.28l.52.26-.5.29a3.39 3.39 0 0 0-1.28 1.4l-.26.51-.29-.49a3.44 3.44 0 0 0-1.39-1.29l-.52-.25.49-.3a3.39 3.39 0 0 0 1.29-1.39l.25-.51z" class="C"/><path d="M245.39 132.41l.59 1c.656 1.115 1.622 2.015 2.78 2.59l1 .51-1 .59c-1.101.663-1.989 1.628-2.56 2.78l-.51 1-.59-1a6.78 6.78 0 0 0-2.78-2.56l-1-.51 1-.59c1.102-.663 1.99-1.628 2.56-2.78l.51-1.03z" fill="#ffc727"/><path d="M263.521 238.52l21.31-4.11 40.88 9.38 20.72 4.32.3 28.31-46.22 8.51-31.19-9.24-11.79-17.35 5.99-19.82z" class="D"/><g fill="#fb9e2d"><path d="M248.374 241.342l20.11-4.74s14.22 44 49.31 42.07c28.6-1.55 28.63-30.56 28.63-30.56l20.91 3.69s8.77 53.09-.84 90.33c-8 31-15.1 73.48-15.1 73.48h-138.91l35.89-174.27z"/><path d="M452.147 377.371s-57.29-100.37-67.6-113.25c-11.29-14.1-20.3-12.47-20.3-12.47l-6.059 67.61 48.709 69.11 11.611 4.19 33.639-15.19zm-201.369-136.59s-32.56 2.6-44.24 56c-5.28 24.13-12 52.41-13.88 71.41-1.4 13.79 7.11 28.13 20.86 29.89l17.26 3.2c4.56.847 9.271-.088 13.162-2.61a18.12 18.12 0 0 0 7.758-10.95l5.83-24.14-15.53-5.22 3.59-71.91 5.19-45.67z"/></g><g class="B"><path d="M369.994 289.121a3.47 3.47 0 0 1 .15.74l.33 2.15.23 1.56c.09.56.12 1.19.18 1.86l.37 4.54c.242 3.952.268 7.915.08 11.87a142.17 142.17 0 0 1-1.44 14.46c-.75 5.1-1.69 9.92-2.64 14.28s-1.9 8.27-2.71 11.55l-2 7.73-.58 2.09a5.48 5.48 0 0 1-.23.72c.021-.25.064-.498.13-.74l.49-2.12 1.84-7.81 2.6-11.56c.91-4.36 1.85-9.17 2.6-14.26s1.26-10 1.47-14.41.23-8.46 0-11.82c0-1.68-.18-3.2-.29-4.54l-.14-1.86c-.04-.58-.13-1.08-.18-1.56l-.23-2.15c-.026-.239-.036-.48-.03-.72zm-110.948 77.04c-.069-.142-.126-.289-.17-.44l-.41-1.29-.64-2.07a6.16 6.16 0 0 0-1.16-2.59c-.856-.822-1.88-1.449-3-1.84a24.02 24.02 0 0 0-4.06-1.14 60.15 60.15 0 0 0-10-1h-.27v-.26l2.94-19.17 4.86-31 1.54-9.37.44-2.55c0-.26.09-.48.13-.66.007-.077.027-.151.06-.22.015.075.015.154 0 .23 0 .18 0 .4-.08.67l-.34 2.56-1.37 9.4-4.72 31-3 19.16-.23-.27a59.43 59.43 0 0 1 10.11 1.13 23.92 23.92 0 0 1 4.11 1.21c1.166.427 2.222 1.111 3.09 2a3.72 3.72 0 0 1 .78 1.39l.37 1.33.58 2.09.34 1.31c.045.126.079.257.1.39z"/><path d="M214.195 374.32c.032-.455.12-.905.26-1.34a20.92 20.92 0 0 1 1.26-3.51c1.706-3.777 4.364-7.045 7.715-9.484s7.277-3.964 11.395-4.426a20.83 20.83 0 0 1 3.72-.12 6.16 6.16 0 0 1 1.36.17c-1.671.01-3.34.113-5 .31a24.64 24.64 0 0 0-11.134 4.487 24.65 24.65 0 0 0-7.696 9.213c-.71 1.532-1.337 3.101-1.88 4.7zm7.532-26.58c.254-.065.517-.088.78-.07.718-.013 1.436.02 2.15.1a24.52 24.52 0 0 1 6.87 1.72 25.06 25.06 0 0 1 6.1 3.61 16.18 16.18 0 0 1 1.59 1.44c.35.37.54.58.51.61s-.88-.7-2.32-1.76a28.83 28.83 0 0 0-12.8-5.26l-2.88-.39zm33.701-69.069c-.066-.474-.089-.952-.07-1.43l-.18-3.87c-.3-4.253-1.031-8.464-2.18-12.57a64.23 64.23 0 0 0-4.69-11.86c-.76-1.45-1.4-2.61-1.87-3.39-.264-.399-.491-.821-.68-1.26.319.356.604.741.85 1.15.53.76 1.22 1.89 2 3.33 4.162 7.553 6.523 15.965 6.9 24.58.07 1.64.06 3 0 3.89a7.28 7.28 0 0 1-.08 1.43z"/></g><g opacity=".3"><path d="M368.516 333.91c8.3-14.07 8.48-32.35 1.23-47a131.32 131.32 0 0 1-1.48 46.94" fill="#000"/></g><g opacity=".3"><path d="M294.615 349.821c-6.3 1.85-15 2.3-21.17 0 4.81 6.83 14.08 9.3 22.12 7.08s15.46-10.27 16.08-18.6c-3.89 5.26-10.72 9.7-17.03 11.52z" fill="#000"/></g><path d="M317.794 327.1a2.59 2.59 0 0 1-.15.56c-.12.36-.26.91-.54 1.57a32.56 32.56 0 0 1-2.71 5.49 35.17 35.17 0 0 1-5.69 7.08 34.43 34.43 0 0 1-19.79 9.5 35.29 35.29 0 0 1-9.08 0c-2.035-.253-4.044-.692-6-1.31-.7-.21-1.21-.44-1.57-.57a3.55 3.55 0 0 1-.53-.23 21.88 21.88 0 0 1 2.15.6 36.86 36.86 0 0 0 25.46-2.11 36.63 36.63 0 0 0 17.55-18.54l.9-2.04zm-70.235 70.011s-.07.11-.25.27a6.82 6.82 0 0 1-.81.69c-1.046.781-2.206 1.394-3.44 1.82a19.71 19.71 0 0 1-5.68 1c-2.336.074-4.675-.009-7-.25-5-.43-9.44-1.16-12.65-1.73l-3.8-.73c-.474-.064-.94-.178-1.39-.34a8.68 8.68 0 0 1 1.42.14l3.83.56c3.22.49 7.68 1.15 12.64 1.58 2.325.241 4.663.337 7 .29 1.893-.039 3.771-.342 5.58-.9 1.628-.567 3.162-1.376 4.55-2.4zM360.498 134l4.11-4c5.47 2.38 8 8.73 8.93 14.63s.79 12.1 3.3 17.52c1.92 4.17 5.41 8 5 12.61-.39 4.35-4.33 7.87-4.35 12.24 0 4.21 3.5 7.44 5.54 11.12 4.13 7.45 6.81 37.93 4.65 46.18-18.17-1.57-50.35-3.51-68.53-7.69 4.79-31.32 24.96-75.52 41.35-102.61z" class="B"/><path d="M368.63 161.921c1.26-21.29-14.2-40.77-35.75-43.34-22.87-2.72-43.1 13.66-45 35.94l-5.36 89.94a7.81 7.81 0 0 0 1.38 4.89c5.28 7.72 14.84 13.76 23.39 14.95 8.27 1.15 16.66-1 23.7-4.92 1.168-.661 2.142-1.616 2.825-2.77s1.05-2.469 1.065-3.81l.37-20.13c-.001-.018.001-.035.007-.052s.015-.031.028-.044.027-.022.044-.028.034-.008.051-.006a27.37 27.37 0 0 0 5.65-.16c5.32-1.3 18.89-6.52 23.45-26.44 1.52-6.6 3.04-25.35 4.15-44.02z" class="D"/><path d="M339.047 191.33c0-.2 2.23-.42 5.84-.62.91 0 1.78-.15 2-.75.134-.917-.02-1.853-.44-2.68l-2.24-7c-3.1-9.92-5.28-18.05-4.88-18.16s3.25 7.82 6.35 17.74l2.13 7c.28 1 .79 2.22.24 3.53-.153.306-.374.572-.647.778a2.24 2.24 0 0 1-.923.412c-.51.102-1.031.139-1.55.11-3.64-.02-5.87-.16-5.88-.36zm23.704-21.88c-.39.43-2.75-1.55-6.13-1.65s-5.9 1.67-6.26 1.21c-.18-.21.23-1 1.33-1.82a8.12 8.12 0 0 1 5-1.52 8 8 0 0 1 4.87 1.87c1.05.9 1.44 1.72 1.19 1.91zm-34.339.861c-.46.43-2.92-1.8-6.61-2.12s-6.56 1.37-6.93.87c-.18-.23.32-1 1.57-1.82 1.674-.992 3.622-1.426 5.56-1.24 1.939.172 3.771.969 5.22 2.27 1.09.97 1.41 1.85 1.19 2.04z" class="B"/><path d="M335.244 232.531s-13.78.15-30.26-11.17c0 0 4.26 18.18 30.15 17.61l.11-6.44zm1.757-32.9c-.627-.885-1.467-1.599-2.442-2.076s-2.053-.702-3.138-.654a5.83 5.83 0 0 0-2.271.496 5.84 5.84 0 0 0-1.899 1.344 3.58 3.58 0 0 0-.938 1.982 3.59 3.59 0 0 0 .388 2.158c.87 1.39 2.85 1.84 4.58 1.48 1.714-.469 3.318-1.271 4.72-2.36a4.15 4.15 0 0 0 1.08-1 1.17 1.17 0 0 0 .08-1.3" class="E"/><g class="B"><path d="M328.446 193c.58 0 .35 3.8 3.47 6.72s7.25 2.78 7.25 3.31c0 .25-1 .68-2.7.6-2.254-.125-4.395-1.026-6.06-2.55a8.22 8.22 0 0 1-2.66-5.61c-.05-1.59.44-2.47.7-2.47zm.548-36.629c-.42.92-3.93.21-8.12.38s-7.64 1-8.14.15c-.21-.43.43-1.27 1.86-2.09 1.902-.991 4.002-1.541 6.145-1.61s4.274.344 6.235 1.21c1.45.72 2.16 1.52 2.02 1.96zm34.486.749c-.72.8-3.57 0-7 0s-6.31.57-7-.26c-.3-.4.15-1.2 1.41-2 1.745-.915 3.692-1.372 5.661-1.33s3.895.582 5.599 1.57c1.24.81 1.65 1.63 1.33 2.02z"/><path d="M335.999 114.081c-1.86-3.16-5.31-4.6-9.17-5.18-15.76-2.39-33.34 7.1-42.17 20.36s-9.3 33.05-2.84 47.61l9.83-6.14c19.73-8.14 33.66-27.15 46.35-46.79 1.77-2.67-.35-7.11-2-9.86z"/></g><path d="M360.275 122.751c-6.59-7.5-11.38-15-25.06-9.76-2 3.83 2 8.8 5.44 11.7 5 4.26 9.29 7.13 12.55 10.18 6.58 6.15 14.06 26.84 14.71 38.13 0 .71 1.25-9.69 2-9.8.92-.14 4.63-4.68 4.12-10.88-1.76-21.19-7.17-22.08-13.76-29.57z" fill="#4b4c4c"/><path d="M326.867 108.901a5.64 5.64 0 0 1 3.07.26c2.421.743 4.579 2.162 6.22 4.09a11.1 11.1 0 0 1 1.24 1.75c.311.601.553 1.235.72 1.89a20.64 20.64 0 0 1 .81 3.24c.27 1.93-.19 3.1-.29 3.07s.05-1.18-.37-2.95a29.91 29.91 0 0 0-1-3.09c-.177-.591-.412-1.164-.7-1.71a11.27 11.27 0 0 0-1.16-1.62 14.69 14.69 0 0 0-5.71-4.06c-1.7-.61-2.85-.71-2.83-.87z" class="F"/><path d="M359.625 176.001c.001.767-.291 1.505-.818 2.063a3 3 0 0 1-2.012.937 2.87 2.87 0 0 1-1.128-.12 2.89 2.89 0 0 1-.994-.547 2.87 2.87 0 0 1-.704-.89 2.88 2.88 0 0 1-.304-1.093 3 3 0 0 1 2.83-3.07c.386-.037.776.005 1.145.123s.711.31 1.004.565.531.566.699.915a2.85 2.85 0 0 1 .282 1.117zm-32.937.16a3 3 0 0 1-.794 2.109c-.528.573-1.258.918-2.036.961a2.87 2.87 0 0 1-1.128-.115c-.364-.114-.702-.299-.994-.545a2.85 2.85 0 0 1-.704-.888c-.173-.34-.277-.711-.304-1.092a3 3 0 0 1 .789-2.114c.529-.575 1.261-.922 2.041-.966a2.86 2.86 0 0 1 1.129.117c.365.114.704.3.996.547a2.85 2.85 0 0 1 .703.892c.173.341.275.713.302 1.094z" class="B"/><path d="M236.048 201.191c1.86-3.06 4-5.94 7.4-7.21s7.26-2 9.93-4.48c4.19-3.85 4-10.25 3.62-15.83s-.48-12 3.8-15.75c3.58-3.13 9.27-3.41 12.37-7 2.07-2.39 2.48-5.69 3.2-8.74 2-8.17 6.47-22.44 30.55-30.65l-21.3 80.94c1.59.45 5.39 4.07 5.6 6.52.19 2.29-.8 4.61-.82 6.91 0 2.81 3.06 4.49 5 6.57 2.46 2.65 3.22 6.47 2.84 10-.788 4.825-2.079 9.554-3.85 14.11-19.76-2-48.6-2.64-63.66-15.24-2.73-2.28 1.18-13.34 5.32-20.15z" fill="#4b4c4d"/><path d="M291.687 170.73c-.37-.2-14.92-6-15.85 9.35s14.64 13.07 14.69 12.64 1.16-21.99 1.16-21.99z" class="D"/><path d="M286.205 186.641c-.07-.06-.28.17-.75.34a2.66 2.66 0 0 1-2-.07c-1.58-.7-2.79-3.35-2.7-6.11a8.91 8.91 0 0 1 1-3.77c.174-.469.459-.889.83-1.225a3.12 3.12 0 0 1 1.3-.705c.312-.062.636-.013.915.138s.497.397.615.692c.18.44.06.74.14.77s.35-.24.26-.88c-.058-.386-.249-.74-.54-1-.401-.345-.922-.518-1.45-.48a3.74 3.74 0 0 0-1.753.717c-.513.385-.918.896-1.177 1.483-.731 1.29-1.136 2.738-1.18 4.22-.09 3.09 1.31 6.07 3.49 6.84.403.147.834.199 1.26.154a2.81 2.81 0 0 0 1.2-.414c.49-.34.59-.67.54-.7z" class="E"/><g class="F"><path d="M346.141 174.741c.081-1.154.245-2.3.49-3.43a13.99 13.99 0 0 1 2.501-5.209c1.187-1.543 2.682-2.822 4.391-3.754a14.01 14.01 0 0 1 5.534-1.662 13.99 13.99 0 0 1 5.734.715 13 13 0 0 1 3.54 1.84c1.151.796 2.165 1.775 3 2.9a13.8 13.8 0 0 1 .26 16.4 13.02 13.02 0 0 1-2.88 3 12.79 12.79 0 0 1-3.48 1.95 13.92 13.92 0 0 1-7.29.74 13.77 13.77 0 0 1-5.91-2.49 14.08 14.08 0 0 1-5.27-7.57c-.276-1.126-.477-2.268-.6-3.42-.005.076-.005.153 0 .23v.68c.008.365.045.73.11 1.09.055.496.148.988.28 1.47a14.11 14.11 0 0 0 5.25 7.82 14.22 14.22 0 0 0 13.59 1.9 14.33 14.33 0 0 0 6.61-5.1 14.28 14.28 0 0 0 2.67-8.545c-.048-3.061-1.079-6.025-2.94-8.455a13.54 13.54 0 0 0-3.1-3c-1.109-.796-2.333-1.417-3.63-1.84a14.22 14.22 0 0 0-7.06-.574c-2.364.408-4.586 1.406-6.46 2.904-2.537 2.012-4.303 4.837-5 8-.115.487-.195.981-.24 1.48-.049.364-.073.732-.07 1.1v.67a1.41 1.41 0 0 0-.03.16zm-38.643.62c.081-1.153.241-2.299.48-3.43a14.09 14.09 0 0 1 5-7.74 13.84 13.84 0 0 1 5.83-2.68 14 14 0 0 1 7.31.51c1.266.432 2.46 1.052 3.54 1.84 1.15.799 2.163 1.778 3 2.9 1.79 2.345 2.782 5.201 2.83 8.151a13.81 13.81 0 0 1-2.56 8.239c-.797 1.148-1.772 2.16-2.89 3a12.75 12.75 0 0 1-3.48 1.95 13.91 13.91 0 0 1-7.29.74 13.72 13.72 0 0 1-5.9-2.49c-2.558-1.86-4.418-4.526-5.28-7.57a25.23 25.23 0 0 1-.59-3.42c-.01.076-.01.154 0 .23v.68a5.95 5.95 0 0 0 .1 1.09 8.67 8.67 0 0 0 .29 1.47c.795 3.135 2.65 5.898 5.25 7.82a14.23 14.23 0 0 0 6 2.62 14.39 14.39 0 0 0 7.53-.72 14.17 14.17 0 0 0 6.61-5.1 14.28 14.28 0 0 0 2.671-8.545 14.27 14.27 0 0 0-2.941-8.455c-1.72-2.267-4.077-3.97-6.77-4.89-2.429-.83-5.036-.993-7.55-.47-2.677.55-5.138 1.861-7.089 3.775a14.21 14.21 0 0 0-3.911 7.015 8.41 8.41 0 0 0-.24 1.48c-.059.363-.082.732-.07 1.1v.67a.61.61 0 0 0 .12.23z"/><path d="M335.102 174.311c.08.05.48-.6 1.41-1.35a6.82 6.82 0 0 1 4.233-1.569c1.549-.027 3.06.473 4.287 1.419 1 .71 1.38 1.35 1.45 1.29a3.59 3.59 0 0 0-1.22-1.58c-1.253-1.096-2.869-1.686-4.533-1.655a6.69 6.69 0 0 0-4.467 1.825c-.531.421-.933.982-1.16 1.62zm-46.938-4.561a13.73 13.73 0 0 0 2.83.58l6.92.78 6.93.62c.95.147 1.909.22 2.87.22a13.95 13.95 0 0 0-2.83-.59l-6.92-.77-6.92-.62a17.58 17.58 0 0 0-2.88-.22z"/></g><path d="M368.461 183.39c1.248-1.442 2.26-3.072 3-4.83a18.39 18.39 0 0 0 .87-5.63c.222.538.325 1.118.3 1.7.036 1.4-.195 2.795-.68 4.11a10.88 10.88 0 0 1-2.16 3.56c-.73.78-1.29 1.14-1.33 1.09zm2.421-15.799c.08-.12.65.17 1 .85s.2 1.3.06 1.29-.26-.52-.53-1.07-.62-.96-.53-1.07zm-37.726 12.769c-.08 0 .2-.8.43-2.09.59-3.384-.06-6.866-1.83-9.81l-1.15-1.8a5.43 5.43 0 0 1 1.46 1.6c1.004 1.454 1.695 3.101 2.027 4.837s.299 3.521-.097 5.243c-.141.723-.426 1.41-.84 2.02z" fill="#b4b4b4"/><path d="M280 192.51s-.21.3-.51.85c-.43.781-.657 1.658-.66 2.55a4.7 4.7 0 0 0 .346 1.888c.244.599.61 1.141 1.074 1.592a5 5 0 0 0 4.32 1.39c.774-.16 1.5-.496 2.121-.984s1.121-1.113 1.459-1.826a4.76 4.76 0 0 0 .443-1.869 4.74 4.74 0 0 0-.333-1.891 5.44 5.44 0 0 0-1.5-2.16l-.78-.62c.33.084.638.242.9.46.763.554 1.358 1.309 1.72 2.18.29.644.44 1.343.44 2.05a5 5 0 0 1-.44 2.05c-.344.803-.882 1.509-1.567 2.053a5.27 5.27 0 0 1-2.353 1.065c-.86.155-1.746.093-2.576-.179a5.28 5.28 0 0 1-2.184-1.379 5.01 5.01 0 0 1-1.135-1.76c-.25-.66-.357-1.366-.315-2.07.034-.942.329-1.855.85-2.64.35-.55.68-.77.68-.75zm84.47 11.801c.846.339 1.779.395 2.66.16a5.22 5.22 0 0 0 2.45-1.51 6.34 6.34 0 0 0 1.58-3.14 5.7 5.7 0 0 0-.42-3.48 6.36 6.36 0 0 0-1.79-2.29c-.739-.54-1.546-.981-2.4-1.31.254-.023.511.012.75.1.676.188 1.313.496 1.88.91.849.624 1.535 1.444 2 2.39a6 6 0 0 1 .5 3.77 6.69 6.69 0 0 1-1.76 3.39c-.733.765-1.676 1.297-2.71 1.53a3.72 3.72 0 0 1-2.09-.11c-.47-.19-.67-.39-.65-.41z" class="C"/><path d="M309 402.871l14.83 4.39s8.18 3.51 12.16 4.42c4.94 1.13 8.31-.4 8.49-3.15s-3.66-3.1-3.66-3.1c-3.264-1.244-6.438-2.71-9.5-4.39-2.223-1.545-4.041-3.603-5.3-6l5.3.73s11.15 8 15.35 10.42 5.12-1.83 5.48-3.11-12.42-14.25-12.42-14.25 12.24 7.86 14.43 9.82 5.49 2.6 6.22 1.33 2.74-1.28 0-6.7-24.67-20-24.67-20l6-1.28 6.58 2.93c.458 2.257 1.392 4.392 2.74 6.26 2.37 3.52 6.58 0 6.58 0l-2.61-13.5-13-8.14s-13.52 1.65-15.53 2.56-4.21 4.74-4.21 4.74l-3.65 1.48c-5.67 1.64-5.48 7.31-7.31 7.49s-55.17-10.22-55.17-10.22l-4.83-1.26c-8 6.07-11.19 16.1-12.6 25 0 0-1.47 4.36 0 6.76l70.3 6.77z" class="D"/><path d="M299.205 393.38c-.063-.286-.08-.579-.05-.87a5 5 0 0 1 .09-1 7.72 7.72 0 0 1 .26-1.34c.751-2.525 2.022-4.865 3.73-6.87a40.86 40.86 0 0 1 5.52-5.53c.798-.727 1.665-1.374 2.59-1.93-.74.766-1.524 1.487-2.35 2.16a51.75 51.75 0 0 0-5.36 5.58 20.61 20.61 0 0 0-3.77 6.65c-.59 1.91-.55 3.16-.66 3.15zm23.099-26.528s-.44.23-1.12.78a12.13 12.13 0 0 0-2.43 2.79c-.478.708-.887 1.462-1.22 2.25-.307.926-.502 1.886-.58 2.86-.137 1.131-.542 2.215-1.18 3.16a12.8 12.8 0 0 0-1.77 3c-.685 1.817-.685 3.822 0 5.64l.07.19-.17.11a11.12 11.12 0 0 0-4.71 6.47 17.99 17.99 0 0 0-.45 3.2c-.081-.28-.115-.57-.1-.86a10.07 10.07 0 0 1 .26-2.41c.638-2.802 2.337-5.246 4.74-6.82l-.1.3a8.56 8.56 0 0 1 0-6 12.35 12.35 0 0 1 1.84-3.07 6.77 6.77 0 0 0 1.12-3c.121-1.906.818-3.73 2-5.23a10.91 10.91 0 0 1 2.62-2.75 3.96 3.96 0 0 1 .9-.51 1.13 1.13 0 0 1 .28-.1zm12.844 5.979c-1.279.166-2.58.028-3.796-.403a8.21 8.21 0 0 1-3.204-2.077c.1-.12 1.44.91 3.37 1.58s3.63.75 3.63.9zm3.417 14.769a33.08 33.08 0 0 1-5.61-2.14c-1.871-.719-3.678-1.595-5.4-2.62a36.09 36.09 0 0 1 5.61 2.14 35.3 35.3 0 0 1 5.4 2.62zm-12.026 7.301a48.16 48.16 0 0 1-5.68-2.34c1.044.046 2.066.312 3 .78.997.318 1.912.85 2.68 1.56zm10.193-6.35a7.18 7.18 0 0 0-2.226 1.86 7.15 7.15 0 0 0-1.304 2.59c-.07 0-.13-.35 0-.91.141-.734.457-1.422.919-2.009s1.06-1.053 1.741-1.361c.49-.21.85-.23.87-.17zm5.355-8.11c.06.14-.92.64-1.58 1.76a15.43 15.43 0 0 0-.84 2.2c-.142-.413-.179-.854-.109-1.285a2.64 2.64 0 0 1 .509-1.185c.76-1.28 2-1.63 2.02-1.49zm-1.513-14.69c-.05 0-.25-.23-.4-.71a3.77 3.77 0 0 1 0-2 3.72 3.72 0 0 1 1-1.7c.36-.35.66-.47.69-.42-.477.698-.863 1.454-1.15 2.25-.149.851-.196 1.717-.14 2.58z" class="E"/><path d="M448.688 370.35s-.67-13.12-14.27-15.84-37.42 8.84-37.42 8.84l-66.74 46.51 2 5.75 67.74-9.44 6.2 2.38 47.58-31.26 44.9-32.46-5-3.91s-12.58 8.67-20.9 12.4-20.35 10.27-24.09 17.03z" fill="#959595"/><path d="M329.227 417.511l56.48-35.09 59.71-9.59s3 4.34 8.07 3.28l49.1-34 .93 2.05-95.22 66.9c-1.399.511-2.91.63-4.371.345a8.17 8.17 0 0 1-3.919-1.965l-70.78 8.07z" class="F"/><path d="M445.418 372.83c-.136.147-.29.275-.46.38l-1.38 1-5 3.69c-4.24 3.15-10 7.64-16.22 12.73l-15.81 13.27-4.77 4.1-1.3 1.1a2.31 2.31 0 0 1-.47.36s.12-.16.4-.43l1.23-1.18 4.63-4.21c3.94-3.52 9.47-8.28 15.72-13.39s12-9.55 16.33-12.63a132.17 132.17 0 0 1 5.15-3.56l1.43-.92c.163-.119.337-.223.52-.31z" class="B"/><path d="M444.807 365.53c-5.41-5.81-13.93-7.88-21.85-7.26s-15.43 3.57-22.82 6.5l-69.09 47.29.62 1.78 69.46-47s15.52-5 22.39-5.86c11.48-1.43 21.29 4.55 21.29 4.55zm10.841 6.22l33.22-22.41s-27.22 14.16-33.22 22.41z" class="C"/><g class="B"><path d="M331.047 412.061c.085-.086.179-.164.28-.23l.86-.61 3.31-2.33 12.24-8.48 40.5-27.81 11.76-8a83.33 83.33 0 0 1 21-6.31c5.854-.827 11.823.016 17.22 2.43 2.018.939 3.877 2.187 5.51 3.7a16.29 16.29 0 0 1 3.08 3.91c.516.911.919 1.882 1.2 2.89a22.99 22.99 0 0 0 .18.79 2.25 2.25 0 0 1 .05.27 16.37 16.37 0 0 0-1.58-3.86 16.75 16.75 0 0 0-3.1-3.81c-1.637-1.466-3.484-2.68-5.48-3.6-5.345-2.323-11.232-3.113-17-2.28-7.189 1.178-14.195 3.286-20.84 6.27h.05l-11.76 8-40.53 27.71-12.34 8.35-3.36 2.24-.89.58c-.114.072-.234.133-.36.18z"/><path d="M391.531 376.311c.158-.131.333-.238.52-.32l1.54-.82 5.8-2.8a75.42 75.42 0 0 1 20.27-6.21 44.17 44.17 0 0 1 21 1.92 31.77 31.77 0 0 1 5.81 2.79c.66.38 1.13.75 1.46 1a3.15 3.15 0 0 1 .49.37l-2.05-1.17a35.2 35.2 0 0 0-5.83-2.61 45.23 45.23 0 0 0-20.83-1.75c-6.965 1.101-13.754 3.119-20.19 6-2.49 1.08-4.48 2-5.86 2.65l-1.58.73c-.175.091-.36.165-.55.22zM496.9 343.42s-.14.13-.43.33l-1.29.86-4.79 3.08-15.78 10.23L459 368.37l-4.73 3.18-1.3.85c-.145.106-.303.194-.47.26.124-.131.261-.248.41-.35l1.25-.93a270.86 270.86 0 0 1 4.63-3.32c3.94-2.77 9.42-6.54 15.56-10.58a624.24 624.24 0 0 1 15.87-10.1l4.88-2.94 1.35-.78c.142-.094.293-.174.45-.24z"/></g><path d="M466.68 379.381c-.679 1.633-1.541 3.183-2.571 4.62-1.28 1.52-5.459 3.64-5.789 6.53s.35 9.67-4.17 14.83c-2.914 3.21-6.601 5.62-10.71 7l-17.83-1.74-28.48-11.21c-.637-.161-1.185-.565-1.525-1.127s-.447-1.234-.295-1.873c.176-.694.556-1.32 1.09-1.798a3.61 3.61 0 0 1 1.91-.882l.68-.11s-1.64-1.34.71-3.69c2-2 6.27-.87 8.47-.14s15.1 6.12 17.41 6.95c2.05.73 3.63 1.38 3.63 1.38s-16.51-11.14-16.74-12.6c-.27-1.75-.09-2.55 1.6-3.77 2-1.45 5.28.1 8.46 1.44 2.37 1 17.48 8.46 17.48 8.46s.68-.66 0-2-5.7-7.8-6.49-9-1-1.88-.21-2.89c1.1-1.43 4-2.11 6.67.33 1.69 1.56 7.7 5.6 7.7 5.6l27.74-20.24s3.45-.09 2.25 4.72-10.99 11.21-10.99 11.21z" class="D"/><path d="M446 396.251c-1.11-.247-2.144-.757-3.014-1.489a7.07 7.07 0 0 1-1.986-2.711c.13-.08.94 1.16 2.32 2.31s2.75 1.74 2.68 1.89zm2.281-12.07c0-.06.37-.17 1-.09a4.33 4.33 0 0 1 2.138.948c.612.506 1.073 1.171 1.332 1.922.19.58.16 1 .09 1a7.82 7.82 0 0 0-1.76-2.48 7.99 7.99 0 0 0-2.8-1.3zm1.309 5.57c-.15 0-.22-1.49-.81-3.19s-1.42-2.95-1.3-3c.879.748 1.504 1.751 1.79 2.87a5.5 5.5 0 0 1 .32 3.32zm16.408-11.811c0 .05-.35-.15-.71-.63a4.59 4.59 0 0 1-.5-4.45c.24-.54.51-.81.56-.77a6.54 6.54 0 0 0-.37 3.002 6.53 6.53 0 0 0 1.02 2.848zm-25.074 25.29c-.642.147-1.308.147-1.95 0-1.554-.275-3.045-.83-4.4-1.64a24.24 24.24 0 0 1-3.79-2.75c-.522-.382-.983-.841-1.37-1.36a7.83 7.83 0 0 1 1.6 1.07c1.219.941 2.495 1.806 3.82 2.59a15.7 15.7 0 0 0 4.21 1.73l1.88.36zm4.645-2.859c.14 0 .15 1-.69 1.83s-1.86.79-1.84.65.79-.34 1.47-1 .91-1.5 1.06-1.48zm6.805-5.001c.06 0 .06.27-.13.63a2.46 2.46 0 0 1-1.13 1 2.53 2.53 0 0 1-1.51.22c-.4-.08-.6-.24-.57-.3s.92.08 1.86-.39 1.34-1.21 1.48-1.16zm-24.013 11.351c-.05.13-6.68-2.63-14.8-6.18s-14.66-6.54-14.56-6.66 6.69 2.64 14.81 6.19 14.61 6.52 14.55 6.65z" class="E"/><path d="M545.164 415.641c0 .14-100.82.26-225.15.26s-225.17-.12-225.17-.26 100.8-.26 225.17-.26l225.15.26z" class="B"/><path d="M107.723 309.11l21.7 106.53h188.35a3.76 3.76 0 0 0 3.76-3.76c.001-.494-.095-.984-.283-1.442a3.76 3.76 0 0 0-.815-1.223c-.349-.35-.764-.628-1.221-.818a3.77 3.77 0 0 0-1.441-.287h-37.92L259.733 309c-.186-.925-.686-1.757-1.415-2.356s-1.641-.929-2.585-.934l-143.93-1.54c-.614-.006-1.222.125-1.779.384s-1.049.639-1.44 1.112-.671 1.029-.82 1.625a4.12 4.12 0 0 0-.041 1.819z" class="C"/><path d="M107.723 309.111l-.06-.32a4.18 4.18 0 0 1 0-1 4.16 4.16 0 0 1 .636-1.79c.347-.539.814-.991 1.364-1.32.383-.235.802-.404 1.24-.5.489-.082.985-.112 1.48-.09h3.39l8.48.07 54.43.51 37.94.39 21.26.21 11.14.12 5.7.06h1.46c.508.057 1.002.202 1.46.43.923.45 1.654 1.216 2.06 2.16a6.62 6.62 0 0 1 .4 1.45l.29 1.43.59 2.88 1.18 5.82 2.41 11.85 5 24.53 10.56 52-.25-.2h37.29a7.38 7.38 0 0 1 1.47.09c1.001.215 1.882.805 2.46 1.65.586.842.826 1.876.67 2.89a4 4 0 0 1-.679 1.707c-.356.508-.825.927-1.371 1.223s-1.158.457-1.78.48h-100.09-88.43-.16v-.16l-15.77-77.84-4.28-21.28-1.1-5.55-.36-1.9a91.62 91.62 0 0 0 .41 1.88l1.16 5.54 4.39 21.27 15.94 77.8-.2-.16 88.43-.05h100.02c.538-.022 1.064-.162 1.54-.41a3.55 3.55 0 0 0 1.191-1.068 3.54 3.54 0 0 0 .599-1.482 3.59 3.59 0 0 0-.58-2.53c-.511-.73-1.279-1.24-2.15-1.43-.45-.068-.905-.095-1.36-.08h-37.5v-.2l-10.54-52-5-24.54-2.4-11.85-1.18-5.81-.58-2.88-.29-1.44a7.1 7.1 0 0 0-.36-1.36 3.89 3.89 0 0 0-3.16-2.32h-1.41l-5.7-.07-11.15-.12-21.25-.25-37.95-.45-54.43-.67-8.47-.11-3.39-.05a6.32 6.32 0 0 0-1.46.08c-.429.088-.841.247-1.22.47-.539.315-1 .749-1.346 1.269s-.57 1.112-.654 1.731a6.05 6.05 0 0 0 .02 1.29z" class="B"/><path d="M188.29 364.081a6.22 6.22 0 1 0 0-12.44 6.22 6.22 0 0 0 0 12.44z" fill="#b4b4b4"/><path d="M107.906 310h.65 9.22l26.93.13 88.85.62 12.85.11h3.16a8.11 8.11 0 0 1 1.61.1 4.5 4.5 0 0 1 2.173 1.12c.607.566 1.046 1.29 1.267 2.09l.62 3 4.59 23.14 7.74 39.19 5.18 26.42 1.38 7.19.35 1.88.1.64s-.06-.21-.15-.63l-.4-1.87-1.48-7.13-5.34-26.39-7.85-39.17-4.62-23.13-.61-3a4 4 0 0 0-1.7-2.3c-.412-.264-.87-.447-1.35-.54-.502-.082-1.011-.112-1.52-.09h-3.15l-12.85-.1-88.85-.78-26.93-.3-7.32-.2h-1.91-.64z" class="B"/><defs><filter id="A" x="0" y="0" width="583.178" height="534" filterUnits="userSpaceOnUse" color-interpolation-filters="sRGB"><feFlood flood-opacity="0"/><feBlend in="SourceGraphic"/><feGaussianBlur stdDeviation="50"/></filter><linearGradient id="B" x1="126.058" y1="77.286" x2="456.932" y2="456.878" gradientUnits="userSpaceOnUse"><stop stop-color="#b9b9b9" stop-opacity=".05"/><stop offset="1" stop-color="#533916" stop-opacity=".25"/></linearGradient></defs></svg>