<svg width="119" height="54" viewBox="0 0 119 54" fill="none" xmlns="http://www.w3.org/2000/svg">
<path d="M116.1 0.5C117.211 0.5 113.924 0.5 114.954 0.5C115.579 0.5 114.335 0.5 112.633 0.5C112.028 0.5 111.118 0.5 111.702 0.5C106.135 0.5 105.894 0.5 106.409 0.5C105.242 0.5 104.995 0.5 106.63 0.5C101.423 0.5 97.8223 0.5 100.024 0.5H9.9637C7.98879 0.5 2.1455 0.5 5.37691 0.5C1.20022 0.5 0.0629749 0.5 3.73939 0.5C0.725808 0.5 0.931892 0.68414 1.77787 1.03093C3.25785 1.63762 4.47462 2.90131 4.95499 4.42698C5.21236 5.24439 5.06475 6.17085 3.73939 7.18874C2.69966 7.83648 1.6676 8.5211 0.95193 9.23795C-2.04295 12.2378 4.26429 17.2626 3.90517 21.4863C3.8936 21.6224 3.87912 21.7587 3.86141 21.8952C3.80001 22.368 3.71222 22.8414 3.74996 23.3168C3.96279 25.9972 5.94252 28.7284 3.73939 31.3989C2.27777 33.499 3.2073 35.5604 3.63449 37.5291C3.94174 38.9451 2.40542 40.4881 2.50002 41.9339C2.707 45.0974 0.774754 50.1398 3.58456 51.6079C3.63287 51.6332 3.68444 51.6582 3.73939 51.683C5.65613 52.8464 2.925 53.5 3.73939 53.5C2.91045 53.5 3.50671 53.5 5.37691 53.5C7.75901 53.5 11.0369 53.5 9.9637 53.5H108.363C108.91 53.5 108.305 53.5 111.007 53.5H114.768C114.355 53.5 113.049 53.5 116.961 53.5C116.752 53.5 119.785 53.5 116.1 53.5C117.392 53.5 113.493 50.2873 114.676 49.7698C114.897 49.6733 115.271 49.4818 115.356 49.2565C115.633 48.5185 115.057 47.6993 116.1 46.8113C116.852 46.0665 116.112 45.2722 116.001 44.4372C115.92 43.8275 116.065 43.2246 116.249 42.6378C116.662 41.3211 117.874 39.2079 118.702 38.1038C119.294 37.3137 119.002 36.5076 117.842 35.6889C117.455 35.385 117.319 35.0795 117.309 34.7724C117.218 32.0783 118.539 29.5177 116.805 27.4541C116.678 27.3027 116.507 27.1513 116.283 27C114.994 26.2297 114.783 25.4594 114.991 24.6914C115.319 23.4789 115.015 22.257 113.967 21.5644C113.352 21.1574 113.017 20.752 113.022 20.3488C113.04 18.9679 116.414 16.6383 117.033 15.4034C117.431 14.6081 116.616 13.6208 116.918 12.7843C117.203 11.9957 116.913 11.2315 114.561 10.496C111.728 9.31402 109.617 8.20618 116.1 7.18874C119.225 6.26314 115.059 5.41236 114.04 4.65033C113.889 4.53764 113.893 4.39528 113.964 4.22105C114.188 3.67144 113.353 1.95254 112.897 1.57288C112.063 0.878759 117.922 0.5 116.1 0.5Z" fill="#ffc446"/>
</svg>
